<?xml version="1.0" standalone="no"?>
<!DOCTYPE svg PUBLIC "-//W3C//DTD SVG 1.1//EN" "http://www.w3.org/Graphics/SVG/1.1/DTD/svg11.dtd" >
<svg xmlns="http://www.w3.org/2000/svg">
<metadata></metadata>
<defs>
<font id="nobileregular" horiz-adv-x="1558" >
<font-face units-per-em="2048" ascent="1638" descent="-410" />
<missing-glyph horiz-adv-x="515" />
<glyph unicode="&#xfb00;" horiz-adv-x="1665" d="M1506 1475q-33 0 -59 -13t-44 -45t-27.5 -85t-9.5 -133h283v-155h-284v-1044h-377v1044h-407v-1044h-378v1044h-190v155h190q0 271 105 413.5t325 142.5q54 0 110.5 -4t122.5 -21l6 -277q-28 6 -54 11q-23 4 -49 7.5t-47 3.5q-34 0 -60 -13t-44 -45t-27 -85t-9 -133h406 q0 271 105.5 413.5t324.5 142.5q54 0 111 -4t122 -21l7 -277q-27 6 -54 11q-23 4 -49.5 7.5t-48.5 3.5z" />
<glyph unicode="&#xfb01;" horiz-adv-x="1588" d="M1001 1674q0 44 16 82t44.5 66.5t66 44.5t81.5 16q43 0 81.5 -16t67.5 -44.5t45.5 -66.5t16.5 -82t-16.5 -82t-45.5 -66t-67.5 -44t-81.5 -16q-45 0 -83 16t-66 44.5t-43.5 66t-15.5 81.5zM1020 0v1044h-439v-1044h-378v1044h-190v155h190q0 273 105 414.5t324 141.5 q54 0 111.5 -4t123.5 -21l6 -277q-28 6 -54 11q-23 4 -49 7.5t-47 3.5q-36 0 -62.5 -14t-44 -47.5t-26 -89.5t-8.5 -140l177 15h639v-1199h-378z" />
<glyph unicode="&#xfb02;" horiz-adv-x="1473" d="M864 1199v-155h-283v-1044h-378v1044h-190v155h190q0 135 30 239t96.5 174.5t173.5 106.5t262 36q153 0 256.5 -35t167 -104t90.5 -171t27 -236v-1209h-379v1252q0 63 6 103.5t6 70.5q0 23 -7 38t-26 23.5t-53 12t-88 3.5q-63 0 -102.5 -4t-62 -13t-30.5 -23.5t-8 -36.5 q0 -32 10 -82t10 -122v-23h282z" />
<glyph unicode="&#xfb03;" horiz-adv-x="2400" d="M1815 1674q0 44 16 82t44 66.5t65.5 44.5t80.5 16q44 0 82.5 -16t67.5 -44.5t45.5 -66.5t16.5 -82t-16.5 -82t-45.5 -66t-67.5 -44t-82.5 -16q-45 0 -83 16t-65 44.5t-42.5 66t-15.5 81.5zM1542 1475q-33 0 -59.5 -13t-44.5 -45t-27.5 -85t-9.5 -133h811v-1199h-379v1044 h-433v-1044h-377v1044h-442v-1044h-378v1044h-190v155h190q0 273 105.5 414.5t324.5 141.5q54 0 110.5 -4t122.5 -21l6 -277q-28 6 -54 11q-23 4 -49 7.5t-47 3.5q-34 0 -60 -13t-44 -45t-27 -85t-9 -133h441q0 273 106 414.5t325 141.5q54 0 110.5 -4t122.5 -21l6 -277 q-27 6 -54 11q-23 4 -49.5 7.5t-47.5 3.5z" />
<glyph unicode="&#xfb04;" horiz-adv-x="2204" d="M1496 1755q155 0 259 -36t166.5 -106.5t89 -175.5t26.5 -243v-1194h-380v1250q0 64 6.5 104.5t6.5 71.5q0 23 -7 38t-26 23.5t-53 12t-88 3.5q-63 0 -102.5 -4t-62 -13t-30.5 -24t-8 -36q0 -32 10 -80t10 -116v-31h236v-155h-238v-1044h-378v1044h-352v-1044h-378v1044 h-190v155h190q0 271 105 413.5t325 142.5q47 0 93.5 -4.5t97.5 -20.5l7 -277q-21 6 -41 11q-17 4 -35.5 7.5t-32.5 3.5q-34 0 -60 -13t-44 -45t-27 -85t-9 -133h351q0 135 30 239t96.5 174.5t174 106.5t262.5 36z" />
<glyph unicode="tt" horiz-adv-x="1799" d="M1440 -27q-89 0 -161 27.5t-122.5 87t-78 153.5t-27.5 228v575h-481v-599q0 -46 6.5 -85.5t20.5 -69t37.5 -46.5t57.5 -17q21 0 43 6t43.5 15.5t40.5 21t33 21.5l86 -226q-3 -2 -29 -16.5t-71.5 -31.5t-110 -30.5t-144.5 -13.5q-90 0 -162 27.5t-122.5 87t-77.5 153.5 t-27 228v575h-214v154h221v454l369 90v-544h489v454l369 90v-544h336v-154h-336v-599q0 -46 6 -85.5t20 -69t37 -46.5t57 -17q21 0 43.5 6t44 15.5t40.5 21t33 21.5l87 -226q-4 -2 -30 -16.5t-72 -31.5t-110.5 -30.5t-143.5 -13.5z" />
<glyph unicode="fj" horiz-adv-x="1583" d="M1025 1671q0 45 15.5 83.5t42.5 66t64 43.5t81 16q45 0 82 -16t64 -44.5t42 -66.5t15 -82t-15 -82t-41.5 -66.5t-64 -44.5t-82.5 -16t-82.5 16.5t-64 45t-41.5 66.5t-15 81zM823 -102q49 28 89.5 58t68.5 68.5t43.5 89.5t15.5 121v809h-459v-1044h-378v1044h-191v155h191 q0 273 105.5 414.5t324.5 141.5q118 0 233 -25l6 -277q-31 13 -69 17.5t-81 4.5q-34 0 -60 -13t-44 -45t-27 -85t-9 -133h838v-985q0 -113 -38.5 -208t-104 -168.5t-152 -123t-182.5 -71.5z" />
<glyph horiz-adv-x="2048" />
<glyph horiz-adv-x="2048" />
<glyph unicode="&#xd;" horiz-adv-x="721" />
<glyph unicode=" "  horiz-adv-x="515" />
<glyph unicode="&#x09;" horiz-adv-x="515" />
<glyph unicode="&#xa0;" horiz-adv-x="515" />
<glyph unicode="!" horiz-adv-x="749" d="M240 48q-60 57 -60 146q0 41 15 79t42 67.5t63.5 47t79.5 17.5q44 0 82 -17t65.5 -46t43.5 -67.5t16 -80.5q0 -44 -16 -81.5t-44 -65.5t-66 -44t-81 -16q-88 0 -140 61zM481 518h-222l-126 1112h470z" />
<glyph unicode="&#x22;" horiz-adv-x="1116" d="M1100 1630l-130 -825h-238l-90 825h458zM542 1630l-130 -825h-238l-73 685l-17 140h458z" />
<glyph unicode="#" horiz-adv-x="1314" d="M763 590l32 259h-205l-33 -259h206zM537 430l-69 -460h-245l70 460h-165v160h182l34 259h-219v160h242l63 458h241l-62 -458h213l58 459h245l-60 -459h157v-160h-178l-35 -259h216v-160h-237l-66 -460h-244l68 460h-209z" />
<glyph unicode="$" horiz-adv-x="1445" d="M771 271q78 20 125.5 66.5t47.5 124.5q0 66 -32.5 112.5t-111.5 80.5q-8 4 -15 6.5t-14 6.5v-397zM657 1386q-45 -1 -85 -7t-70 -22t-47.5 -45.5t-17.5 -78.5q0 -15 4 -30.5t18 -32t40.5 -33.5t72.5 -34q23 -8 44 -15.5t41 -15.5v314zM657 1800h114v-119 q152 -14 268.5 -45.5t198.5 -74.5l-92 -277q-69 27 -137 48q-29 9 -60.5 18t-62.5 15.5t-60.5 11t-54.5 4.5v-352q42 -15 82.5 -30.5t82.5 -30.5q76 -28 144.5 -70.5t119.5 -99t81 -127.5t30 -155q0 -129 -35.5 -228t-104.5 -168t-169.5 -108t-230.5 -49v-111h-114v109 q-45 0 -91 6t-91.5 16.5t-88.5 23t-81 26.5q-90 32 -174 72l69 286q75 -37 154 -66q33 -12 71 -24t77 -21.5t78.5 -15t76.5 -5.5v456q-74 32 -148 63.5t-150 62.5q-140 57 -211 152.5t-71 236.5q0 131 47 219t127 141t185 75.5t221 22.5v112z" />
<glyph unicode="%" horiz-adv-x="1724" d="M1398 206q34 0 60 11t44 39.5t27 78t9 125.5q0 138 -35 199.5t-105 61.5q-71 0 -106 -61.5t-35 -199.5q0 -76 9 -125.5t27 -78t44.5 -39.5t60.5 -11zM1403 12q-75 0 -130.5 21t-96 56.5t-67 81t-42 94.5t-22 97t-6.5 89q0 124 25.5 214t73 148.5t114.5 86.5t151 28 q82 0 149 -28t114.5 -86.5t73 -148.5t25.5 -214q0 -39 -6 -86.5t-21.5 -96.5t-41.5 -95t-66.5 -82t-96.5 -57.5t-130 -21.5zM372 837q34 0 60 11t44 39.5t27 77.5t9 125q0 138 -35 200t-105 62q-71 0 -105.5 -62t-34.5 -200q0 -76 9 -125t27 -77.5t44 -39.5t60 -11zM377 642 q-74 0 -130 21t-96 56.5t-66.5 81t-42 94.5t-22 97t-6.5 89q0 124 25.5 214.5t72.5 149t114.5 86.5t150.5 28q82 0 149.5 -28t114.5 -86.5t73 -149t26 -214.5q0 -39 -6 -86.5t-21.5 -96t-42 -95t-66.5 -82t-96 -57.5t-131 -22zM1136 1552l208 -109l-714 -1485l-209 101z" />
<glyph unicode="&#x26;" horiz-adv-x="1860" d="M501 478q0 -112 82.5 -171.5t263.5 -59.5q91 0 160.5 14.5t116.5 32.5q46 18 70 32l24 14l-447 389q-55 -14 -104 -34.5t-86 -50t-58.5 -70.5t-21.5 -96zM847 -41q-141 0 -265 27.5t-216.5 86.5t-146.5 153t-54 227q0 107 32.5 183t85.5 131.5t120.5 94.5t138.5 72v-1 q-63 51 -111 113q-21 26 -41 57.5t-35.5 67t-25 74.5t-9.5 80q0 86 40 152.5t108.5 111.5t159 68.5t192.5 23.5q105 0 193 -25t151 -71t98.5 -110.5t35.5 -143.5q0 -75 -16.5 -147.5t-51.5 -135.5t-89 -112.5t-128 -77.5l315 -276q-1 46 -1.5 88.5t-0.5 85.5v88.5v96.5h309 q0 -72 -4.5 -146.5t-10.5 -140.5t-13 -120t-13 -85l-14 -72l278 -239l-158 -199l-250 211q-79 -86 -228.5 -138.5t-374.5 -52.5zM1017 1287q0 80 -48.5 117t-137.5 37q-189 0 -189 -146q0 -48 19.5 -83.5t45.5 -65.5q17 -17 39 -39.5t48 -34.5q46 14 86.5 31t71 41.5t48 59 t17.5 83.5z" />
<glyph unicode="'" horiz-adv-x="617" d="M535 1630l-129 -825h-239l-89 825h457z" />
<glyph unicode="(" horiz-adv-x="855" d="M146 700q0 169 34.5 323t97 287t150.5 242t195 190l169 -228q-70 -67 -126 -156t-95.5 -194t-61 -222.5t-21.5 -240.5t21.5 -237t61.5 -215.5t97.5 -189t129.5 -156.5l-172 -228q-108 81 -196.5 189t-151.5 238.5t-97.5 281t-34.5 316.5z" />
<glyph unicode=")" horiz-adv-x="851" d="M719 715q0 -167 -35 -320.5t-98 -286.5t-150.5 -243t-193.5 -190l-171 228q70 67 126.5 156.5t96 194.5t60.5 222.5t21 240.5t-22 237.5t-62.5 216.5t-98 188.5t-127.5 154.5l172 228q110 -83 199 -192t152 -240t97 -281t34 -314z" />
<glyph unicode="*" horiz-adv-x="1053" d="M665 1701l210 -125l-138 -240h254v-211h-251l136 -233l-214 -129l-127 222l-126 -220l-212 127l136 233h-273v211h276l-139 244l208 119l127 -224z" />
<glyph unicode="+" horiz-adv-x="1102" d="M708 457v-364h-312v364h-283v293h283v362h312v-362h285v-293h-285z" />
<glyph unicode="," horiz-adv-x="765" d="M170 440h447v-384q0 -96 -34.5 -160t-89 -105.5t-121.5 -67t-133 -45.5l-68 119q50 18 86 37t58.5 42.5t33 53.5t10.5 70h-189v440z" />
<glyph unicode="-" horiz-adv-x="1190" d="M179 599v282h832v-282h-832z" />
<glyph unicode="." horiz-adv-x="814" d="M165 440h447v-440h-447v440z" />
<glyph unicode="/" horiz-adv-x="932" d="M662 1716l301 -95l-590 -1769l-296 92z" />
<glyph unicode="0" horiz-adv-x="1515" d="M754 253q75 0 124.5 29t79 79t41 117.5t11.5 144.5q0 73 -13 135.5t-43 108t-79 71.5t-121 26q-74 0 -122 -29.5t-76.5 -79t-40 -113t-11.5 -130.5q0 -84 13 -151t43 -113t77.5 -70.5t116.5 -24.5zM754 1245q151 0 265 -44t190.5 -127.5t114.5 -204.5t38 -274 q0 -146 -41 -261.5t-119 -196t-191.5 -123t-258.5 -42.5q-149 0 -261.5 45.5t-188.5 128.5t-114.5 201t-38.5 262q0 151 39.5 269.5t116.5 200t190 124t259 42.5z" />
<glyph unicode="1" horiz-adv-x="958" d="M364 905l-156 -66l-101 257l285 114l117 -4h231v-1206h-376v905z" />
<glyph unicode="2" horiz-adv-x="1219" d="M743 806q0 72 -34.5 107t-112.5 35q-43 0 -91 -10t-95.5 -26t-91.5 -36t-79 -39l-99 258q11 5 38.5 17t65 27t84 31t96 29.5t99.5 22t96 8.5q54 0 110.5 -7.5t110.5 -24t102 -44.5t84 -69t57 -97t21 -128q0 -62 -13.5 -114.5t-44.5 -105t-81 -108t-123 -121.5l-135 -123 h362v-288h-891v232l440 372q18 15 39.5 37t40.5 48.5t32 56.5t13 60z" />
<glyph unicode="3" horiz-adv-x="1222" d="M698 855q0 53 -44 78.5t-114 25.5q-48 0 -98.5 -11t-92.5 -24.5t-70.5 -25t-32.5 -12.5l-124 246q16 8 51 26t85.5 36.5t114.5 32.5t138 14q118 0 214 -21t164 -68.5t105.5 -124t37.5 -186.5q0 -44 -13 -87.5t-38 -81.5t-62 -66.5t-85 -40.5q52 -14 95.5 -46t74.5 -74.5 t48 -92t17 -98.5q0 -114 -40.5 -196t-112.5 -134.5t-171 -77.5t-216 -25q-83 0 -150.5 9.5t-116.5 21.5t-79 22.5t-37 13.5l90 272q8 -3 34.5 -13.5t65 -21t85.5 -19t96 -8.5q102 0 152.5 34t50.5 118q0 48 -27 82.5t-70.5 57t-97 33.5t-107.5 11v264q53 0 103.5 8.5 t89.5 27t63 48.5t24 73z" />
<glyph unicode="4" horiz-adv-x="1331" d="M714 336v401l-267 -401h267zM1024 1188v-849h185v-279h-185v-280h-310v280h-583l-43 214l666 985z" />
<glyph unicode="5" horiz-adv-x="1223" d="M178 180q27 -11 68.5 -24t91 -24.5t103.5 -19.5t107 -8q107 0 164.5 45t57.5 143q0 106 -49 166t-148 60q-100 0 -257 -82l-148 132v639h837v-262h-534v-215q0 1 11.5 7.5t31 13.5t44.5 12.5t52 5.5q112 0 201.5 -33.5t151.5 -96t95.5 -151t33.5 -198.5 q0 -107 -39 -194.5t-108.5 -150t-164.5 -97t-207 -34.5q-52 0 -109.5 7.5t-114.5 20t-112 30t-101 37.5z" />
<glyph unicode="6" horiz-adv-x="1273" d="M1196 404q0 -111 -35.5 -203t-102 -158.5t-163 -103.5t-217.5 -37q-136 0 -242.5 45t-180 123t-112.5 182t-39 222q0 197 63.5 351t173 269t256 192t312.5 121l87 -285q-152 -30 -255 -85t-172 -130q34 2 64.5 3t55.5 1q115 0 208.5 -41.5t160 -111.5t102.5 -162t36 -192 zM456 478q2 -70 14.5 -124.5t38.5 -92.5t67 -58t100 -20q55 0 90 21.5t55.5 59t28 87.5t7.5 106q0 91 -42 136t-133 45q-63 0 -117.5 -21.5t-109.5 -72.5q1 -18 1 -34v-32z" />
<glyph unicode="7" horiz-adv-x="1163" d="M1131 1010l-609 -1260l-320 142l501 1032h-570v277h911z" />
<glyph unicode="8" horiz-adv-x="1353" d="M845 949q0 69 -40 105.5t-128 36.5q-89 0 -128.5 -36.5t-39.5 -106.5q0 -88 39.5 -125t128.5 -37q88 0 128 37t40 126zM864 311q0 96 -47 152.5t-140 56.5q-94 0 -141 -56t-47 -153q0 -87 47.5 -121t140.5 -34q94 0 140.5 34t46.5 121zM1181 964q0 -63 -20 -119t-56 -100 t-86 -74.5t-110 -40.5q57 -7 111 -35.5t97 -73.5t69 -104.5t26 -128.5q0 -112 -45.5 -191t-120.5 -129.5t-171 -73.5t-198 -23t-198.5 23.5t-171.5 73.5t-120.5 129.5t-45.5 192.5q0 69 26.5 128t69 103.5t97 72.5t110.5 35q-59 11 -109 41t-86 74.5t-56.5 100.5t-20.5 119 q0 99 39.5 174t108 125.5t160.5 76.5t197 26q106 0 198 -26t160 -77t107 -126t39 -173z" />
<glyph unicode="9" horiz-adv-x="1317" d="M627 241q-116 0 -210 32.5t-160 94t-102 149.5t-36 200q0 111 37.5 202.5t104.5 157.5t159 102t202 36q139 0 248.5 -38.5t185.5 -112t116.5 -179.5t40.5 -241q0 -137 -36 -254t-97.5 -215t-142.5 -176t-170.5 -136t-182.5 -96.5t-178 -56.5l-85 287q81 16 146.5 41.5 t118.5 58.5t94.5 72t73.5 81q-33 -5 -64.5 -7t-62.5 -2zM459 693q0 -40 11.5 -74t32.5 -58.5t51.5 -38t68.5 -13.5q18 0 48 1t61.5 1.5t60 1.5t45.5 1h13q4 37 7.5 73t8.5 71q-1 63 -14 114t-39 87t-67 55.5t-99 19.5q-57 0 -93.5 -14t-57.5 -43t-29 -74.5t-9 -109.5z" />
<glyph unicode=":" horiz-adv-x="788" d="M199 461h446v-461h-446v461zM199 1237h446v-462h-446v462z" />
<glyph unicode=";" horiz-adv-x="791" d="M200 1237h446v-462h-446v462zM202 440h447v-384q0 -96 -34.5 -160t-89.5 -105.5t-122 -67t-133 -45.5l-67 119q50 18 85.5 37t58 42.5t33 53.5t10.5 70h-188v440z" />
<glyph unicode="&#x3c;" horiz-adv-x="1228" d="M116 731l885 531v-365l-562 -290l573 -291v-364l-896 521v258z" />
<glyph unicode="=" horiz-adv-x="1252" d="M148 277v251h957v-251h-957zM148 678v251h957v-251h-957z" />
<glyph unicode="&#x3e;" horiz-adv-x="1157" d="M185 -48v375l554 280l-565 279v376l887 -532v-257z" />
<glyph unicode="?" horiz-adv-x="1104" d="M206 120q0 4 -0.5 7t-0.5 7q0 47 16 85t44 65t66 41.5t82 14.5q47 0 84.5 -16.5t63.5 -45t40 -67t14 -81.5q0 -47 -16 -85.5t-43.5 -65.5t-65.5 -42t-83 -15q-44 0 -81 15.5t-63.5 42.5t-41.5 63t-15 77zM688 1163q0 53 -21.5 82.5t-56.5 44t-80.5 17.5t-94.5 3 q-25 0 -60 -5t-74 -13t-77 -17t-68 -17t-49 -14t-19 -7l-87 273q56 28 110.5 46.5t111.5 29t117.5 14.5t128.5 4q127 0 234 -22.5t185 -73.5t121.5 -132t43.5 -198q0 -23 -3.5 -58.5t-19 -78t-46 -89t-85 -92.5t-136.5 -88.5t-199 -75.5v-249h-345v415q51 17 106 34 t107 36.5t98.5 42t81.5 50.5t55.5 62t20.5 76z" />
<glyph unicode="@" horiz-adv-x="2027" d="M1002 -135q-194 0 -354 56.5t-275.5 161t-179 253t-63.5 333.5q0 112 25.5 224t77 214.5t131 190.5t187 153t244 102t303.5 37q109 0 213.5 -23t197.5 -67.5t171 -110t134.5 -150t88 -187t31.5 -221.5q0 -82 -19.5 -161t-53.5 -146.5t-80.5 -121t-100.5 -84.5 q-28 -17 -88.5 -24t-156.5 -7q-91 0 -138 56.5t-47 162.5q0 9 0.5 17.5t4.5 18.5q-27 -72 -55 -123.5t-64.5 -84t-84 -47.5t-112.5 -15q-47 0 -95.5 10t-94 37t-87 74.5t-74.5 121.5q-34 74 -34 173q0 64 13.5 121t36.5 105t53.5 88t63.5 71q72 67 163 100.5t198 33.5 q72 0 143.5 -13.5t129.5 -40.5t94 -67.5t36 -94.5q0 -14 -2 -18l-93 -477q137 25 197 98t60 189q0 265 -147.5 407t-430.5 142q-144 0 -262 -49.5t-201 -137.5t-128.5 -210t-45.5 -266q0 -152 47 -258.5t134 -174.5t210.5 -99t277.5 -31q45 0 96.5 15t99.5 35l53 -226 q-65 -32 -156.5 -48.5t-191.5 -16.5zM1087 1018q-65 0 -115.5 -20.5t-85 -64t-52.5 -111t-18 -160.5q0 -34 9 -66.5t26 -58t41 -41t54 -15.5q55 0 97 22t74 60t55 89t41 108.5t31 118.5t25 119q-45 7 -89 13.5t-93 6.5z" />
<glyph unicode="A" d="M986 1630l545 -1630h-398l-113 358h-482l-113 -358h-398l537 1630h422zM589 541h397l-200 601z" />
<glyph unicode="B" horiz-adv-x="1504" d="M595 1630q151 0 257.5 -11t180.5 -29t121 -41.5t80 -47.5q72 -54 106 -131t34 -178q0 -64 -27 -121.5t-75 -102.5t-113 -74.5t-141 -37.5q112 -17 190.5 -48.5t127.5 -78.5t71 -109t22 -140q0 -128 -47 -219t-137 -149t-220.5 -85t-298.5 -27h-204h-364v1630h437z M669 251q91 0 159.5 4t114.5 26t69 68.5t23 131.5q0 71 -20 117t-62 72.5t-108 37t-159 10.5h-129v-467h112zM557 960h131q163 0 247.5 51.5t84.5 153.5q0 55 -15.5 96t-53 67t-99 39t-153.5 13h-142v-420z" />
<glyph unicode="C" horiz-adv-x="1358" d="M502 809q0 -278 90.5 -414t270.5 -136q88 0 173 25.5t174 87.5l107 -280q-30 -26 -79.5 -48t-113 -38t-139.5 -25t-160 -9q-167 0 -300 56t-226 164t-143 266t-50 362q0 208 49.5 365t142.5 262t226 157.5t300 52.5q58 0 123 -5.5t130 -20t127.5 -38.5t115.5 -61 l-109 -280q-53 34 -99 57t-89.5 36.5t-85 19.5t-84.5 6q-90 0 -156 -31.5t-109.5 -99.5t-64.5 -174.5t-21 -256.5z" />
<glyph unicode="D" horiz-adv-x="1613" d="M1107 811q0 86 -7 161.5t-26 138.5t-53.5 112.5t-89.5 84t-133.5 53t-186.5 18.5h-54v-1128h56q147 0 242.5 41t151.5 114.5t78 176.5t22 228zM1507 806q0 -197 -51.5 -347.5t-156.5 -252.5t-265 -154t-376 -52h-500v1630h502q423 0 635 -207t212 -617z" />
<glyph unicode="E" horiz-adv-x="1356" d="M158 0v1630h1116v-251h-718v-415h625v-245h-625v-474h727v-245h-1125z" />
<glyph unicode="F" horiz-adv-x="1298" d="M556 0h-398v1630h1132v-251h-734v-415h642v-245h-642v-719z" />
<glyph unicode="G" horiz-adv-x="1637" d="M1136 674h-365v240h714v-914h-260l-49 122q-21 -39 -59 -67t-87.5 -46.5t-107 -27.5t-118.5 -9q-161 0 -290 51t-219.5 153.5t-139.5 257t-49 360.5q0 198 53 357.5t155.5 272t252.5 173t344 60.5q106 0 187.5 -14t141.5 -34.5t99.5 -42.5t62.5 -38l-114 -265 q-45 20 -91.5 39.5t-93 34.5t-92 24.5t-90.5 9.5q-99 0 -176.5 -38t-131 -111.5t-81.5 -181.5t-28 -249q0 -109 19.5 -206t60.5 -169.5t104 -115t149 -42.5t158.5 13t140.5 33v370z" />
<glyph unicode="H" horiz-adv-x="1662" d="M1105 721h-548v-721h-399v1630h399v-664h548v664h399v-1630h-399v721z" />
<glyph unicode="I" horiz-adv-x="901" d="M249 181v1267h-172v182h746v-182h-174v-1267h174v-181h-746v181h172z" />
<glyph unicode="J" horiz-adv-x="914" d="M30 171q93 12 155.5 31.5t100.5 58.5t54 102t16 162v1105h400v-1107q0 -162 -37.5 -276.5t-115 -188t-195 -108.5t-276.5 -39z" />
<glyph unicode="K" horiz-adv-x="1535" d="M557 0h-399v1630h399v-700h70l446 700h418l-549 -812l604 -818h-448l-479 685h-62v-685z" />
<glyph unicode="L" horiz-adv-x="1246" d="M158 0v1630h398v-1379h699v-251h-1097z" />
<glyph unicode="M" horiz-adv-x="2046" d="M486 1084v-1084h-328v1630h460l396 -1189l413 1189h461v-1630h-328v1084l-350 -1084h-370z" />
<glyph unicode="N" horiz-adv-x="1696" d="M1131 0l-620 1076v-1076h-353v1630h420l609 -1060v1060h352v-1630h-408z" />
<glyph unicode="O" horiz-adv-x="1691" d="M1584 814q0 -197 -45 -353t-136.5 -264.5t-230.5 -166.5t-327 -58t-326.5 57.5t-230.5 166t-137 264t-45 351.5q0 199 45.5 356.5t137.5 266t231 166t325 57.5q187 0 326 -58t230.5 -166.5t137 -265t45.5 -353.5zM504 817q0 -113 14 -214.5t52 -178t104 -121.5t171 -45 q106 0 173 46.5t104.5 124t51 178.5t13.5 210q0 112 -14.5 212.5t-53 176.5t-105 120.5t-170.5 44.5q-105 0 -171 -45t-103.5 -121.5t-51.5 -176.5t-14 -211z" />
<glyph unicode="P" horiz-adv-x="1442" d="M1409 1081q0 -156 -58 -257t-163.5 -159t-252.5 -80.5t-325 -22.5h-53v-562h-399v1630h480q180 0 322 -25.5t240.5 -88.5t152 -169t56.5 -266zM609 796q83 0 156.5 12.5t128.5 44.5t87 86.5t32 138.5q0 87 -24.5 145.5t-72 93t-117 49t-160.5 14.5h-82v-584h52z" />
<glyph unicode="Q" horiz-adv-x="1689" d="M1583 817q0 -167 -32.5 -306.5t-99.5 -245t-168 -175.5t-239 -98l289 -228l-186 -198l-467 420q-144 23 -252 89.5t-179.5 172.5t-107 248.5t-35.5 318.5q0 202 46.5 358.5t139 264t231 163.5t323.5 56q187 0 325.5 -58t230 -167t136.5 -264.5t45 -350.5zM844 1371 q-100 0 -165.5 -43t-104.5 -118t-54.5 -176.5t-15.5 -217.5q0 -111 14.5 -212t52.5 -178t104 -122.5t169 -45.5q101 0 167 43t104.5 118t54 177t15.5 220q0 61 -5 126t-18.5 126.5t-37 116.5t-61.5 96.5t-92 65.5t-127 24z" />
<glyph unicode="R" horiz-adv-x="1534" d="M575 932q111 0 195.5 8t141 33t85.5 70.5t29 119.5q0 66 -20 108t-66 66t-121.5 33.5t-186.5 9.5h-75v-448h18zM935 811q108 -11 200 -36.5t158.5 -73.5t104.5 -123t38 -185v-393h-394v420q0 78 -24 130.5t-71 84t-116 44.5t-159 13h-115v-692h-399v1630h428 q168 0 295.5 -12t220.5 -36t154.5 -59.5t98.5 -82t52.5 -104.5t15.5 -126q0 -108 -36 -181.5t-101 -119.5t-154.5 -68.5t-196.5 -29.5z" />
<glyph unicode="S" horiz-adv-x="1375" d="M1308 464q0 -238 -153.5 -365t-451.5 -127q-128 0 -235.5 24.5t-187.5 54.5q-93 34 -170 79l84 277l27 -11q27 -12 70.5 -28.5t100 -36t115.5 -36t115.5 -27.5t102.5 -11q109 0 162 31t53 108q0 30 -6.5 56t-21.5 49t-40.5 42t-64.5 36l-414 175q-151 63 -227 173.5 t-76 266.5q0 80 25 145.5t68.5 117t102 89t126 62.5t140.5 37t145 12q82 0 156 -10t137 -25.5t113.5 -33.5t86 -33.5t54.5 -25.5l18 -10l-92 -259l-18 8q-17 8 -47 20.5t-71.5 27t-89.5 27t-101 20.5t-106 8q-45 0 -95.5 -4t-93 -19t-70.5 -44t-28 -79q0 -12 1.5 -26.5 t12.5 -31t35 -34.5t69 -36l372 -150q87 -35 155.5 -81t116 -105t72 -132.5t24.5 -164.5z" />
<glyph unicode="T" horiz-adv-x="1186" d="M796 1379v-1379h-399v1379h-417v251h1226v-251h-410z" />
<glyph unicode="U" horiz-adv-x="1636" d="M819 258q70 0 118 16.5t78.5 47t46.5 74t23 97.5t8 117.5t1 133.5v886h398v-882q0 -195 -37.5 -340.5t-118.5 -242t-209 -145t-309 -48.5q-180 0 -307.5 48.5t-208.5 145t-119 242t-38 340.5v882h399v-886q0 -70 0.5 -133t7 -117t22.5 -98t46.5 -74.5t78.5 -47t120 -16.5 z" />
<glyph unicode="V" horiz-adv-x="1457" d="M733 552l321 1078h376l-507 -1630h-390l-506 1630h371z" />
<glyph unicode="W" horiz-adv-x="2084" d="M1253 1630l205 -1136l216 1136h385l-350 -1629h-427l-239 1233l-235 -1234h-431l-348 1630h386l215 -1136l205 1136h418z" />
<glyph unicode="X" horiz-adv-x="1418" d="M1015 1630h414l-497 -805l497 -825h-422l-298 497l-299 -497h-421l497 825l-497 805h414l306 -513z" />
<glyph unicode="Y" horiz-adv-x="1268" d="M942 1630h404l-526 -1091v-539h-376v539l-519 1091h397l309 -673z" />
<glyph unicode="Z" horiz-adv-x="1255" d="M1201 1393l-704 -1142h706v-251h-1154v243l713 1136h-713v251h1152v-237z" />
<glyph unicode="[" horiz-adv-x="1206" d="M1016 1630v-250h-426v-1129h426v-251h-783v1630h783z" />
<glyph unicode="\" horiz-adv-x="1234" d="M1109 -33l-347 -116l-586 1769l349 115z" />
<glyph unicode="]" horiz-adv-x="1200" d="M1026 1630v-1630h-783v251h424v1128h-424v251h783z" />
<glyph unicode="^" horiz-adv-x="1250" d="M763 1238l263 -643h-297l-106 397l-106 -405h-295l264 651h277z" />
<glyph unicode="_" horiz-adv-x="1154" d="M63 -100v283h1035v-283h-1035z" />
<glyph unicode="`" horiz-adv-x="899" d="M175 776l329 155l215 -632l-171 -82z" />
<glyph unicode="a" horiz-adv-x="1280" d="M622 985q-109 0 -200.5 -23t-184.5 -66l-88 223q93 58 215.5 87.5t270.5 29.5q135 0 231.5 -34.5t158.5 -102.5t91.5 -168t29.5 -230v-701h-293l-51 152q-28 -48 -59 -81.5t-68 -55.5t-81.5 -32t-99.5 -10q-99 0 -177 26t-132.5 77t-83.5 126t-29 173q0 99 38.5 170.5 t112.5 118t182 69t248 22.5q29 0 58.5 -2t59.5 -7q0 40 -3.5 82t-18 77t-44.5 57.5t-83 22.5zM593 227q106 0 178 97v230q-33 2 -57 4t-28 2q-72 0 -118 -10.5t-72 -30t-36 -48t-10 -64.5q0 -83 36.5 -131.5t106.5 -48.5z" />
<glyph unicode="b" horiz-adv-x="1385" d="M733 227q49 0 86.5 22t63 68t38 117t12.5 169q0 114 -9.5 188t-29.5 117t-51 60t-75 17q-57 0 -112.5 -23.5t-115.5 -81.5v-572q43 -48 90 -64.5t103 -16.5zM826 -27q-263 0 -318 197l-83 -170h-263v1743l378 50v-695q60 69 139.5 103.5t185.5 34.5t189.5 -46t141 -128 t87.5 -195t30 -247q0 -155 -29 -275.5t-89 -203t-151.5 -125.5t-217.5 -43z" />
<glyph unicode="c" horiz-adv-x="1131" d="M690 -27q-126 0 -221 29t-163.5 77.5t-113.5 112t-72 132t-37.5 137.5t-10.5 129q0 138 42.5 256t122.5 205t195 136t261 49q80 0 141.5 -9.5t108 -24.5t79 -33t54.5 -34l-68 -242q-22 15 -50 31t-62.5 29.5t-77 22.5t-92.5 9q-61 0 -111.5 -21t-86.5 -66.5t-55.5 -117 t-19.5 -173.5q0 -191 75 -285.5t232 -94.5q72 0 137 26.5t110 61.5l68 -241q-24 -18 -59 -36t-82 -32.5t-107.5 -23.5t-136.5 -9z" />
<glyph unicode="d" horiz-adv-x="1377" d="M451 606q0 -187 48 -283t151 -96q73 0 121 20t76 61v572q-60 54 -117.5 79.5t-113.5 25.5q-47 0 -79 -23t-51 -70.5t-27 -118.5t-8 -167zM535 1236q200 0 312 -154v661l378 51v-1794h-266l-83 170q-13 -44 -45 -80t-76.5 -62t-96 -40.5t-103.5 -14.5q-99 0 -173.5 28.5 t-128 77.5t-88.5 114.5t-55.5 140.5t-29 155t-8.5 157q0 121 31.5 228.5t90.5 187.5t145 127t196 47z" />
<glyph unicode="e" horiz-adv-x="1253" d="M1111 69q-99 -49 -197 -72.5t-207 -23.5q-143 0 -260 39t-200 114t-129 184.5t-46 249.5q0 163 39.5 289.5t116 212t188.5 130t258 44.5q121 0 213.5 -41t155.5 -114t95.5 -174t32.5 -221v-86.5t1 -87.5h-711q2 -63 21.5 -115.5t55 -90t86 -58.5t113.5 -21q90 0 164.5 23 t140.5 71zM866 694q0 149 -48.5 218t-152.5 73q-54 -4 -93 -28t-64 -62.5t-36.5 -89.5t-11.5 -108h406v-3z" />
<glyph unicode="f" horiz-adv-x="869" d="M727 1475q-33 0 -59 -12.5t-44 -43.5t-27.5 -84.5t-9.5 -135.5h282v-155h-283v-1044h-378v1044h-196v155h196q0 133 25.5 237t78 174.5t134 107.5t192.5 37q85 0 141 -9t92 -16l6 -277q-36 6 -75 14t-75 8z" />
<glyph unicode="g" horiz-adv-x="1299" d="M589 -317q117 0 186 12.5t104 35t45 53.5t10 69q0 43 -15 69t-58.5 43t-121.5 29t-204 26q-25 -8 -55 -32t-55.5 -54.5t-42.5 -63.5t-17 -59q0 -48 22 -74t55.5 -38t73 -14t73.5 -2zM691 637q21 2 45 19.5t45 44t34.5 59.5t13.5 65q0 82 -44 120.5t-134 38.5 q-48 0 -83.5 -8.5t-58 -28t-33.5 -52t-11 -81.5q0 -60 22 -108.5t76 -77.5zM1075 994q65 -99 65 -154q0 -41 -7.5 -85t-26.5 -87t-50.5 -82.5t-79 -71.5t-112.5 -54t-151 -30l-309 -26l18 -122l275 -22q142 -13 248.5 -42.5t177.5 -79.5t106.5 -123t35.5 -172 q0 -212 -164.5 -323t-501.5 -111q-147 0 -248.5 21t-164.5 66t-91 115t-28 167q0 44 15.5 86t44 80.5t68 72t87.5 59.5q-94 8 -140.5 70t-46.5 173q0 54 14.5 92t46.5 66.5t84.5 50t129.5 40.5q-54 1 -98.5 16.5t-76.5 46.5t-49.5 76t-17.5 104q0 99 34.5 178t98 134t153 84 t199.5 29q112 0 191.5 -15.5t128.5 -44.5q78 35 163.5 47.5t180.5 12.5h54v-242h-256z" />
<glyph unicode="h" horiz-adv-x="1417" d="M539 1099q22 31 55.5 56.5t74 43.5t88 27.5t98.5 9.5q102 0 182 -32t134.5 -93t83.5 -150.5t29 -203.5v-757h-378v784q0 46 -14 83.5t-36.5 63.5t-52 40t-59.5 14q-53 0 -84.5 -5t-52 -14.5t-35 -23t-33.5 -29.5v-913h-377v1732l377 64v-697z" />
<glyph unicode="i" horiz-adv-x="694" d="M159 0v1198h377v-1198h-377zM139 1674q0 44 16 82t44.5 66.5t66 44.5t81.5 16q43 0 81 -16t67 -44t46 -66.5t17 -82.5q0 -45 -17 -83t-46.5 -66t-67.5 -43.5t-80 -15.5q-45 0 -83.5 16t-66 44t-43 66t-15.5 82z" />
<glyph unicode="j" horiz-adv-x="748" d="M191 1671q0 46 15.5 84t42.5 66t64 43.5t80 15.5t80 -16t64.5 -44t43.5 -66t16 -83q0 -47 -16 -85.5t-44 -66t-65 -42.5t-79 -15q-47 0 -84 17t-63.5 45.5t-40.5 66.5t-14 80zM-12 -102q48 28 88 56t69 64t45 84.5t16 116.5v979h379v-984q0 -111 -38.5 -205.5 t-104 -168.5t-151.5 -124.5t-182 -72.5z" />
<glyph unicode="k" horiz-adv-x="1403" d="M540 0h-378v1743l378 52v-1024l442 428h410l-526 -529l534 -670h-426l-341 507l-93 -90v-417z" />
<glyph unicode="l" horiz-adv-x="715" d="M547 0h-379v1743l379 51v-1794z" />
<glyph unicode="m" horiz-adv-x="2022" d="M540 0h-378v1198h266l85 -182q43 120 122.5 170t195.5 50q57 0 105.5 -9t89 -29.5t73 -53.5t56.5 -82q31 45 66 78t77.5 54t95.5 31.5t121 10.5q93 0 163 -30.5t117 -89t70.5 -143.5t23.5 -194v-779h-379v809q0 178 -119 178q-25 0 -46.5 -6.5t-41.5 -19t-40.5 -30.5 t-42.5 -40v-891h-378v821q0 91 -27 129t-87 38q-32 0 -62.5 -13t-55.5 -32.5t-43.5 -42.5t-26.5 -44v-856z" />
<glyph unicode="n" horiz-adv-x="1386" d="M522 1047q45 98 118 143.5t184 45.5q223 0 325.5 -121t102.5 -370v-745h-378v773q0 62 -9.5 103t-29 65t-49 34t-68.5 10q-71 0 -113.5 -30t-64.5 -73v-882h-378v1198h287z" />
<glyph unicode="o" horiz-adv-x="1329" d="M658 229q53 0 93 20.5t67 65.5t41 116.5t14 173.5q0 101 -14 173.5t-41 118.5t-67 67.5t-93 21.5t-93 -21.5t-66.5 -67.5t-40 -118t-13.5 -174q0 -42 2 -86t9.5 -85.5t21.5 -78t37.5 -64.5t58.5 -44.5t84 -17.5zM1249 602q0 -152 -39.5 -269t-115.5 -196.5t-185.5 -120.5 t-250.5 -41q-140 0 -250 41t-186 120.5t-116 196.5t-40 269q0 154 40.5 272.5t116.5 199t186 122t248 41.5t247.5 -41.5t186 -122t117.5 -199t41 -272.5z" />
<glyph unicode="p" horiz-adv-x="1389" d="M766 985q-64 0 -119.5 -25t-106.5 -78v-543q76 -60 131.5 -86t100.5 -26q36 0 62.5 18t45 48t29.5 68t17 78.5t8 80t2 71.5q0 82 -4 154t-20.5 125.5t-51 84t-94.5 30.5zM814 -27q-85 0 -152.5 36t-121.5 111v-531h-378v1609h288l71 -152q27 94 104.5 142t214.5 48 q131 0 222 -47.5t147.5 -133.5t82 -206t25.5 -264q0 -155 -37.5 -270t-104.5 -191t-159.5 -113.5t-201.5 -37.5z" />
<glyph unicode="q" horiz-adv-x="1377" d="M612 227q59 0 115.5 27t119.5 88v510q-24 38 -43.5 63.5t-40.5 41t-46 22t-59 6.5q-64 0 -104.5 -32t-63.5 -86t-31.5 -125.5t-8.5 -150.5q0 -31 0.5 -70t4.5 -79.5t13.5 -79t27.5 -68.5t46 -48.5t70 -18.5zM572 1236q42 0 80 -7.5t72.5 -29t65 -60t57.5 -99.5l52 158 h326v-1608h-378v531q-66 -75 -134.5 -111.5t-147.5 -36.5q-134 0 -227.5 50.5t-152.5 135t-86 194.5t-27 228q0 320 124.5 487.5t375.5 167.5z" />
<glyph unicode="r" horiz-adv-x="893" d="M530 1008q22 58 58 94.5t82.5 57t101 28.5t113.5 9v-322q-29 10 -57.5 15t-60.5 5q-57 0 -113.5 -18.5t-113.5 -61.5v-815h-378v1198h326z" />
<glyph unicode="s" horiz-adv-x="1121" d="M340 540q-52 21 -99 46t-83 64t-57.5 96.5t-21.5 144.5q0 78 33.5 142t96.5 109t154 69.5t207 24.5q56 0 111 -7t105.5 -17.5t93 -23t73.5 -22.5t48 -16.5t16 -5.5l-68 -239v-1q-3 0 -21.5 6t-48.5 15t-68 19.5t-78 19.5t-80 15t-74 6q-47 0 -77.5 -6.5t-48.5 -19 t-25 -32t-7 -45.5q0 -17 4 -29t13.5 -21.5t26 -17.5t41.5 -18l211 -81q79 -30 138.5 -66t100 -79t61 -94.5t20.5 -114.5q0 -113 -43.5 -187.5t-113.5 -119t-158 -63t-178 -18.5q-63 0 -122 8t-111 20t-95 26t-73.5 25.5t-47 19t-14.5 6.5l68 244q2 0 20.5 -6.5t48.5 -17.5 t69 -23t81.5 -23t85 -18t79.5 -7q49 0 79 7t46 22.5t21.5 39.5t5.5 57q0 21 -25 43.5t-78 44.5z" />
<glyph unicode="t" horiz-adv-x="946" d="M588 -27q-90 0 -162 27.5t-122.5 87t-77.5 154t-27 228.5v574h-219v154h226v454l369 90v-544h337v-154h-337v-599q0 -46 6.5 -85.5t20.5 -69t37.5 -46.5t57.5 -17q21 0 43 6t43.5 15.5t40.5 21t33 21.5l86 -226q-3 -2 -29 -16.5t-71.5 -31.5t-110 -30.5t-144.5 -13.5z " />
<glyph unicode="u" horiz-adv-x="1370" d="M507 435q0 -46 6.5 -85t23.5 -67t46 -43.5t74 -15.5q57 0 97.5 25t74.5 68v881h379v-1198h-267l-84 183q-13 -56 -39 -95.5t-62.5 -65t-82 -37.5t-96.5 -12q-227 0 -335 123.5t-108 367.5v734h373v-763z" />
<glyph unicode="v" horiz-adv-x="1214" d="M377 0l-377 1198h398l211 -877l207 877h403l-380 -1198h-462z" />
<glyph unicode="w" horiz-adv-x="1626" d="M811 707l-152 -707h-352l-307 1198h350l148 -799l154 799h327l153 -797l157 797h342l-308 -1198h-357z" />
<glyph unicode="x" horiz-adv-x="1224" d="M431 0h-417l407 604l-416 594h426l188 -324l181 324h419l-407 -594l401 -604h-413l-186 344z" />
<glyph unicode="y" horiz-adv-x="1230" d="M0 1198h388l276 -799l188 799h382l-405 -1231q-36 -110 -85 -193.5t-118.5 -140.5t-163.5 -86.5t-220 -30.5l-106 256q100 7 162.5 24.5t101.5 50t61 81.5t40 118z" />
<glyph unicode="z" horiz-adv-x="1091" d="M109 946v253h888v-245l-483 -703h495v-251h-910v247l500 699h-490z" />
<glyph unicode="{" horiz-adv-x="883" d="M610 1002q0 -97 -19 -158t-47 -98t-59.5 -54.5t-56.5 -27.5q91 -35 137.5 -120.5t46.5 -219.5q0 -114 3.5 -182t14 -104t29.5 -47t51 -11v-197q-48 0 -100 6t-102.5 23.5t-96 49t-79.5 82t-54.5 122.5t-20.5 172v52q0 81 -5.5 134t-18 84.5t-32 44t-47.5 12.5v196 q27 0 46.5 13t31.5 43.5t17.5 82t5.5 128.5v58q0 98 20 170.5t54.5 123t80 82.5t96 50.5t103 25t101.5 6.5v-197q-30 0 -49 -9.5t-30.5 -45t-16 -104t-4.5 -186.5z" />
<glyph unicode="|" horiz-adv-x="858" d="M264 1719h330v-1874h-330v1874z" />
<glyph unicode="}" horiz-adv-x="883" d="M268 1004q0 121 -5 190t-16.5 103t-30.5 42.5t-47 8.5v198q48 0 100.5 -6t103 -24t96 -49.5t80 -82.5t55 -124t20.5 -173q0 -16 -0.5 -32t-0.5 -30q0 -76 5 -126.5t17 -81t31.5 -43t47.5 -12.5v-194q-28 0 -47.5 -13t-31.5 -44.5t-17.5 -84.5t-5.5 -133v-53 q0 -98 -20 -169.5t-54 -122.5t-79 -83t-95.5 -50t-103 -24.5t-101.5 -6.5v197q27 0 45.5 8t30.5 40.5t17 98t5 179.5q0 142 43.5 231t140.5 127q-30 10 -62 29.5t-59 57t-44.5 98.5t-17.5 154z" />
<glyph unicode="~" horiz-adv-x="1278" d="M874 200q-51 0 -101.5 16.5t-92.5 41.5q-25 15 -54 32.5t-57.5 33t-53.5 25.5t-43 10q-31 0 -45.5 -29t-14.5 -101h-221q0 177 59.5 267t180.5 90q46 0 84 -11t71 -27.5t62.5 -36t57.5 -36t56.5 -27.5t60.5 -11q18 0 29.5 4t18.5 15.5t9.5 32t2.5 54.5h234 q0 -77 -17 -140.5t-48.5 -108.5t-76.5 -69.5t-101 -24.5z" />
<glyph unicode="&#xa1;" horiz-adv-x="819" d="M642 -1h-471l127 1090h222zM211 1380q0 40 15.5 78t42.5 66.5t64 46t79 17.5t80 -16.5t66 -44.5t44.5 -66t16.5 -81t-16 -81t-43.5 -67t-65.5 -46t-82 -17t-80.5 17.5t-63.5 46.5t-42 67.5t-15 79.5z" />
<glyph unicode="&#xa2;" horiz-adv-x="1129" d="M454 606q0 -287 187 -350v707q-66 -14 -103 -52t-55.5 -88t-23.5 -107.5t-5 -109.5zM641 -13q-117 4 -220.5 46t-180.5 119.5t-121.5 191t-44.5 262.5q0 148 48.5 262t128.5 192.5t181.5 119.5t208.5 44v203h174v-212q40 -8 73.5 -16.5t64 -19.5t60.5 -24.5t64 -31.5 l-68 -242q-7 9 -26 20t-45.5 22t-58 21.5t-64.5 16.5v-717q28 0 61.5 13.5t63 29.5t48.5 29l19 14l70 -239l-25 -15q-24 -15 -62 -33t-84.5 -32.5t-90.5 -14.5v-146h-174v137z" />
<glyph unicode="&#xa3;" horiz-adv-x="1250" d="M196 239q13 16 37.5 54t48.5 87t42 104t18 105h-124v150h100q0 -2 -18.5 15t-40 49.5t-39.5 78.5t-18 102q0 80 30.5 149.5t90.5 121.5t149 81.5t207 29.5q102 0 181 -17.5t135.5 -40.5t90 -44.5t43.5 -30.5l-136 -242q-13 12 -36.5 28.5t-57 30.5t-76.5 24t-95 10 q-63 0 -99 -15t-53.5 -38t-22 -49.5t-4.5 -49.5q0 -37 16 -81t63 -105h416v-158h-395q0 -56 -11.5 -103t-28.5 -85.5t-36.5 -67.5t-36.5 -48.5t-28.5 -29.5t-11.5 -9v1h607v-246h-907v239z" />
<glyph unicode="&#xa4;" horiz-adv-x="1445" d="M350 755q-73 110 -73 244q0 138 81 260l-210 209l134 134l210 -210q119 83 263 83q132 0 242 -72l200 199l133 -134l-201 -202q66 -105 66 -231q0 -143 -82 -264l217 -217l-133 -135l-219 219q-120 -81 -260 -81q-125 0 -231 65l-205 -203l-134 135zM747 1288 q-56 0 -107.5 -23t-91 -61.5t-63 -89.5t-23.5 -107t22.5 -104.5t60.5 -84.5t87 -56.5t103 -20.5t103.5 24t87.5 63.5t60.5 90.5t22.5 105t-22 102t-58.5 84t-83.5 57t-98 21z" />
<glyph unicode="&#xa5;" horiz-adv-x="1319" d="M953 1628h416l-392 -823h203v-125h-266l-70 -137h336v-127h-338v-416h-375v416h-337v127h335l-69 137h-266v125h205l-386 823h408l298 -788z" />
<glyph unicode="&#xa6;" horiz-adv-x="790" d="M230 1731h331v-776h-331v776zM230 610h331v-776h-331v776z" />
<glyph unicode="&#xa7;" horiz-adv-x="1153" d="M559 674q99 0 144.5 25t45.5 73q0 20 -6.5 38.5t-26.5 33t-57 23t-99 8.5q-66 0 -103.5 -9.5t-55.5 -24t-22.5 -32.5t-4.5 -35q0 -51 42 -75.5t143 -24.5zM893 1251q-1 0 -15.5 9t-39 23t-57.5 29.5t-70 29.5t-76.5 23t-76.5 9q-66 0 -103 -8t-54.5 -19.5t-21 -25 t-3.5 -24.5q0 -8 1.5 -18.5t13.5 -24t39 -29.5t77 -34q120 -41 206 -76t144 -67.5t92 -64t52 -65t23 -71t5 -81.5q0 -38 -11.5 -76t-34 -71t-57.5 -58.5t-81 -39.5q54 -24 90 -57t57.5 -71t30 -78t8.5 -78q0 -76 -21 -131.5t-57.5 -94.5t-85 -63.5t-103 -38t-112 -18.5 t-111.5 -5q-55 0 -110 12t-104.5 30t-92 39.5t-73.5 39t-48 29t-16 10.5l102 231q1 0 15.5 -10t39 -25.5t57 -33t69.5 -33t76 -25.5t76 -10q210 0 210 120q0 26 -7.5 44.5t-24.5 33.5t-46 27.5t-71 27.5l-164 56q-105 36 -169.5 70.5t-99.5 74.5t-47 88.5t-12 112.5 q0 28 9.5 64t31.5 70.5t58 64t90 45.5q-93 32 -141 101.5t-48 173.5q0 52 21.5 108t73 102.5t137 76.5t213.5 30q59 0 115.5 -12.5t106.5 -31t91.5 -40t71.5 -39.5t45.5 -30t14.5 -11z" />
<glyph unicode="&#xa8;" horiz-adv-x="1316" d="M99 414q0 44 16 82t44 66t66 44t82 16q43 0 81.5 -16t67 -44t45.5 -66t17 -82t-17 -82t-45.5 -66.5t-67 -44.5t-81.5 -16q-45 0 -83.5 16.5t-66 44.5t-43 66t-15.5 82zM809 414q0 44 16 82t44.5 66t66 44t81.5 16q43 0 81.5 -16t67 -44t45.5 -66t17 -82t-17 -82 t-45.5 -66.5t-67 -44.5t-81.5 -16q-45 0 -83.5 16.5t-66 44.5t-43 66t-15.5 82z" />
<glyph unicode="&#xa9;" horiz-adv-x="2146" d="M1070 104q157 0 286 54.5t221.5 149.5t143 222.5t50.5 273.5q0 109 -27.5 204t-75.5 173t-113.5 138.5t-141 102.5t-157.5 63.5t-164 21.5t-164.5 -21.5t-158 -63t-141 -102.5t-113.5 -139t-75.5 -172.5t-27.5 -204.5q0 -146 43.5 -273.5t127.5 -222.5t206.5 -149.5 t280.5 -54.5zM884 806q0 -89 17.5 -148.5t48 -95.5t73.5 -51t94 -15q27 0 56 4t64.5 15t80.5 30.5t105 49.5v-235q-47 -24 -87.5 -41t-76.5 -27.5t-67.5 -15t-61.5 -4.5q-97 0 -172 22.5t-130 62t-92.5 92t-60 113t-32.5 126t-10 129.5q0 118 34.5 214t97.5 164.5t151 105.5 t195 37q34 0 76.5 -7t84 -18.5t79 -26.5t63.5 -31v-227q-88 45 -165 65.5t-141 20.5q-70 0 -113.5 -28t-68 -72.5t-33.5 -99.5t-9 -108zM1079 -148q-129 0 -249 31.5t-225 90t-191 143t-148 190.5t-96 232.5t-34 268.5q0 143 35.5 269.5t99 232.5t152 189.5t194.5 141.5 t226.5 89t248.5 31q123 0 241.5 -31t224.5 -89t195.5 -141.5t154.5 -189.5t101.5 -232.5t36.5 -269.5q0 -142 -36 -268.5t-100.5 -232.5t-154 -190.5t-197 -143.5t-229.5 -90t-250 -31z" />
<glyph unicode="&#xaa;" horiz-adv-x="1296" d="M817 828q-1 0 -16 -25t-49 -55t-90 -55t-139 -25q-74 0 -132.5 19.5t-99.5 56.5t-63 91.5t-22 124.5q0 72 26 127.5t73.5 93.5t113.5 57.5t146 19.5q43 0 84.5 -5t74 -12t53 -13.5t22.5 -9.5v58q0 58 -6.5 102.5t-27 74.5t-58 45t-100.5 15q-59 0 -111.5 -11t-92 -24 t-63 -24t-24.5 -11l-53 109q1 0 27 13.5t71 29.5t106 29.5t132 13.5q102 0 171 -22t111.5 -70.5t60.5 -125t18 -185.5v-549h-116zM799 1141q-51 8 -95 12.5t-81 4.5q-256 0 -256 -187q0 -53 10 -89t32.5 -58.5t59.5 -32.5t92 -10t99 18.5t75 41t47.5 41.5t16.5 21v238z M270 575h684v-129h-684v129z" />
<glyph unicode="&#xab;" horiz-adv-x="1938" d="M1307 598l491 -305v-361l-852 534v256l852 533v-362zM457 598l491 -305v-361l-852 534v256l852 533v-362z" />
<glyph unicode="&#xac;" horiz-adv-x="1108" d="M62 560v281h993v-615h-200v334h-793z" />
<glyph unicode="&#xad;" horiz-adv-x="1183" d="M162 599v284h852v-284h-852z" />
<glyph unicode="&#xae;" horiz-adv-x="1414" d="M6 1272q0 89 23.5 174t67.5 159.5t106.5 137t141 107.5t170.5 70t196 25q96 0 186 -23t168.5 -66t143 -103.5t110.5 -135t71.5 -162t25.5 -183.5q0 -91 -24 -176.5t-68 -160.5t-107.5 -137t-141.5 -106.5t-170 -69t-194 -24.5q-147 0 -275.5 51.5t-224 142t-150.5 213.5 t-55 267zM710 742q118 0 217.5 41t171 112.5t111.5 167.5t40 207q0 112 -40 208.5t-111.5 168t-171 112t-217.5 40.5t-217 -40.5t-171 -112t-112 -168.5t-40 -209q0 -113 39.5 -209.5t111 -167t171 -110.5t218.5 -40zM672 1319q81 0 121.5 21t40.5 83q0 25 -7.5 42t-29 27 t-60 14t-101.5 4v-182h47q-11 0 -11 -9zM862 899l-191 311h-41v-282h-139v698h140q75 0 137.5 -9t108 -31t71 -59t25.5 -94q0 -41 -8.5 -71t-28.5 -53t-53 -40t-81 -32l196 -271z" />
<glyph unicode="&#xaf;" horiz-adv-x="604" d="M-65 45v132h729v-132h-729z" />
<glyph unicode="&#xb0;" horiz-adv-x="851" d="M245 1065q0 -38 14.5 -70t39 -55.5t57 -37t68.5 -13.5t69 13.5t58 37t39.5 55.5t14.5 70t-15 70t-40 55.5t-57.5 37t-68.5 13.5q-37 0 -69.5 -14t-57 -38t-38.5 -56t-14 -68zM426 1435q79 0 151.5 -28t127 -78t87 -118.5t32.5 -150.5q0 -83 -34.5 -150.5t-92 -115 t-131.5 -73.5t-152 -26t-149 29.5t-124 80.5t-84.5 119.5t-31.5 146.5q0 80 34 147t90.5 115t128.5 75t148 27z" />
<glyph unicode="&#xb1;" horiz-adv-x="1170" d="M207 6v245h830v-245h-830zM777 815v-365h-312v365h-283v291h283v363h312v-363h285v-291h-285z" />
<glyph unicode="&#xb2;" horiz-adv-x="1126" d="M253 805l271 240q68 60 111.5 103t68 77t34 64t9.5 65q0 70 -48 108t-133 38q-48 0 -99.5 -8t-95.5 -18q-51 -11 -101 -26v138q36 15 84 26q41 10 97 18t125 8q100 0 166 -28t105.5 -70t55.5 -91.5t16 -91.5q0 -48 -12 -90.5t-40 -86t-74.5 -91.5t-116.5 -107l-191 -162 h406v-152h-638v137z" />
<glyph unicode="&#xb3;" horiz-adv-x="1208" d="M351 745q25 -12 55.5 -25t66 -23.5t75.5 -17.5t83 -7q48 0 88.5 13t70 36.5t45.5 57t16 74.5q0 94 -63 149t-199 70v135q46 0 90 10.5t78 32t54.5 55t20.5 78.5q0 75 -54.5 116.5t-169.5 41.5q-29 0 -60 -4.5t-62 -12.5t-59.5 -18.5t-52.5 -21.5l-47 127q2 1 25.5 11.5 t62.5 22.5t90 22t108 10q37 0 79 -5.5t83.5 -18t79.5 -33.5t67 -52.5t46.5 -74.5t17.5 -99q0 -70 -27.5 -118t-66.5 -78t-81 -43t-70 -13q25 -5 55.5 -14.5t61 -25t59.5 -39t51 -56t35.5 -75t13.5 -97.5q0 -77 -35 -133t-91 -92t-125.5 -53t-137.5 -17q-91 0 -172.5 19 t-155.5 59z" />
<glyph unicode="&#xb4;" horiz-adv-x="1133" d="M416 295l214 634l331 -156l-372 -559z" />
<glyph unicode="&#xb5;" horiz-adv-x="1320" d="M185 1169h174v-727q0 -319 252 -319q70 0 129 19t104.5 44.5t74.5 50.5t39 37v895h208v-1153h-146l-24 154q-171 -190 -397 -190q-46 0 -84 13.5t-68 34t-52 43.5t-36 42v-404h-174v1460z" />
<glyph unicode="&#xb6;" horiz-adv-x="1503" d="M1347 0h-272v1474h-139v-1474h-275v715q-77 0 -150.5 9.5t-138.5 31t-119.5 56.5t-93.5 87t-61 122.5t-22 162.5q0 97 27.5 167.5t74 120t109 80.5t132.5 48t143.5 23t143.5 6h641v-1629z" />
<glyph unicode="&#xb7;" horiz-adv-x="652" d="M100 734q0 46 18 87.5t48.5 72.5t71.5 49t88 18q48 0 89.5 -18t73 -49t49.5 -72.5t18 -87.5q0 -47 -18 -88t-49.5 -72.5t-73 -49.5t-89.5 -18q-47 0 -88.5 18t-72 49t-48 72.5t-17.5 88.5z" />
<glyph unicode="&#xb8;" horiz-adv-x="689" d="M75 -495q30 -13 63 -23q28 -8 62.5 -15t69.5 -7q25 0 48 4t40.5 16t28 32.5t10.5 53.5q0 78 -67.5 112.5t-201.5 34.5l22 306h124l-13 -186q29 0 65.5 -5.5t74.5 -18.5t74 -33t64.5 -50t46 -69.5t17.5 -90.5q0 -60 -21.5 -108.5t-61 -82.5t-95.5 -52.5t-125 -18.5 q-54 0 -96 9t-71 20t-44 20t-14 9v143z" />
<glyph unicode="&#xb9;" horiz-adv-x="740" d="M327 1304l-171 -72l-37 113l237 95l140 -26v-936h-169v826z" />
<glyph unicode="&#xba;" horiz-adv-x="1255" d="M638 670q-108 0 -187.5 37.5t-132 102.5t-78.5 153t-26 189q0 99 25.5 187t78 154.5t132 105.5t188.5 39t189 -39t132.5 -105.5t78 -154.5t25.5 -187q0 -100 -25.5 -187.5t-78 -153t-132.5 -103.5t-189 -38zM638 797q72 0 122.5 26.5t82.5 74t47 113t15 143.5 q0 76 -15 141.5t-47 113.5t-82.5 75.5t-122.5 27.5t-122.5 -27t-82.5 -75t-47 -113.5t-15 -142.5t15 -142.5t47 -113t82.5 -74.5t122.5 -27zM300 575h684v-129h-684v129z" />
<glyph unicode="&#xbb;" horiz-adv-x="1986" d="M176 1255l852 -533v-256l-852 -534v361l501 305l-501 295v362zM1026 1255l852 -533v-256l-852 -534v361l501 305l-501 295v362z" />
<glyph unicode="&#xbc;" horiz-adv-x="2056" d="M1548 327v280l-161 -280h161zM1810 1007v-678h143v-224h-143v-222h-261v222h-457l-35 172l532 788zM1180 1609l243 -84l-704 -1634l-236 79zM258 1134l-125 -55l-81 206l300 117l189 -42v-952h-283v726z" />
<glyph unicode="&#xbd;" horiz-adv-x="2161" d="M1788 770q0 59 -27.5 87.5t-94.5 28.5q-22 0 -53 -7t-67.5 -19t-77 -28.5t-80.5 -34.5l-81 201q48 19 94.5 39t93 35.5t94 25.5t96.5 10q69 0 138 -14.5t124.5 -48.5t90 -90.5t34.5 -141.5q0 -50 -10.5 -92.5t-35.5 -84.5t-65 -86t-99 -97l-111 -100h297v-227h-715v183 q71 60 140.5 119t140.5 119q16 13 45 35.5t57.5 51.5t50 63.5t21.5 72.5zM252 1134l-124 -55l-81 206l299 117l190 -42v-952h-284v726zM1177 1609l243 -84l-704 -1634l-236 79z" />
<glyph unicode="&#xbe;" horiz-adv-x="2193" d="M1725 327v291l-193 -291h193zM1966 1007v-681h142v-221h-142v-222h-240v222h-479l-35 172l532 788zM1334 1609l244 -84l-703 -1634l-237 79zM532 1236q0 44 -35.5 64.5t-92.5 20.5q-21 0 -48.5 -4.5t-58.5 -12.5t-64 -18.5t-64 -22.5l-98 195q23 13 55.5 28.5t72 28 t86 21t96.5 8.5q94 0 171 -16t131.5 -53t84.5 -97.5t30 -148.5q0 -35 -10 -70.5t-30 -66t-49.5 -54t-68.5 -34.5q42 -11 76.5 -36.5t59 -59.5t38 -73.5t13.5 -78.5q0 -95 -33.5 -161t-93.5 -107.5t-142.5 -60t-179.5 -18.5q-28 0 -68.5 3.5t-82 10.5t-78.5 17t-58 23l70 216 q-1 0 18.5 -8t52 -17t73.5 -17t83 -8q82 0 122.5 27t40.5 95q0 36 -20.5 64t-54.5 47t-78 28.5t-91 9.5v210q44 0 84 6.5t71 21t49.5 38.5t20.5 60z" />
<glyph unicode="&#xbf;" horiz-adv-x="1190" d="M953 1350q0 -47 -15.5 -85t-43.5 -65t-66.5 -41.5t-83.5 -14.5q-47 0 -84.5 16t-63.5 44.5t-39.5 67.5t-13.5 86t16 85t44 65t66 41.5t82 14.5t81 -16t64 -43t42 -63.5t15 -76.5v-15zM469 322q0 -54 21.5 -84t57 -44.5t81.5 -17t95 -2.5q33 0 72 5t77.5 13t74 17.5 t63 17.5t44 13.5t16.5 6.5l85 -272q-56 -28 -110 -46.5t-111 -29t-117.5 -14.5t-127.5 -4q-127 0 -234 22.5t-185 73t-121.5 132t-43.5 198.5q0 23 3.5 58.5t19 77.5t46 89t85 92.5t136.5 88t199 75.5v251h345v-415q-39 -14 -89 -29t-102 -34t-102.5 -41.5t-90 -51.5 t-63.5 -65t-24 -81z" />
<glyph unicode="&#xc0;" d="M986 1630l545 -1630h-398l-113 358h-482l-113 -358h-398l537 1630h422zM589 541h397l-200 601zM525 2403l329 155l215 -632l-171 -82z" />
<glyph unicode="&#xc1;" d="M986 1630l545 -1630h-398l-113 358h-482l-113 -358h-398l537 1630h422zM589 541h397l-200 601zM638 1922l214 634l331 -156l-372 -559z" />
<glyph unicode="&#xc2;" d="M986 1630l545 -1630h-398l-113 358h-482l-113 -358h-398l537 1630h422zM589 541h397l-200 601zM923 2484l264 -644h-298l-105 398l-107 -406h-295l264 652h277z" />
<glyph unicode="&#xc3;" d="M986 1630l545 -1630h-398l-113 358h-482l-113 -358h-398l537 1630h422zM589 541h397l-200 601zM1007 1840q-49 0 -107 18.5t-118 50.5q-29 16 -56 30.5t-50.5 25.5t-43 17.5t-34.5 6.5q-12 0 -24 -5.5t-21 -19t-14.5 -36.5t-5.5 -59h-220q0 357 241 357q35 0 65.5 -5.5 t58 -14t52.5 -19.5l50 -22q29 -14 58 -27.5t54.5 -25t46.5 -18.5t35 -7q8 0 14 3t9.5 12.5t5.5 28.5t2 52h233q0 -169 -58.5 -256t-172.5 -87z" />
<glyph unicode="&#xc4;" d="M986 1630l545 -1630h-398l-113 358h-482l-113 -358h-398l537 1630h422zM589 541h397l-200 601zM218 2050q0 44 16 82t44 66t66 44t82 16q43 0 81.5 -16t67 -44t45.5 -66t17 -82t-17 -82t-45.5 -66.5t-67 -44.5t-81.5 -16q-45 0 -83.5 16.5t-66 44.5t-43 66t-15.5 82z M928 2050q0 44 16 82t44.5 66t66 44t81.5 16q43 0 81.5 -16t67 -44t45.5 -66t17 -82t-17 -82t-45.5 -66.5t-67 -44.5t-81.5 -16q-45 0 -83.5 16.5t-66 44.5t-43 66t-15.5 82z" />
<glyph unicode="&#xc5;" d="M986 1630l545 -1630h-398l-113 358h-482l-113 -358h-398l537 1630h422zM589 541h397l-200 601zM598 2202q0 -39 15 -73t41 -58.5t60.5 -38.5t72.5 -14q39 0 73 14t60 38.5t41 58.5t15 73q0 40 -15.5 74t-41.5 59t-60 39.5t-72 14.5q-39 0 -73.5 -14.5t-60 -40 t-40.5 -59.5t-15 -73zM788 2564q78 0 148.5 -27t124 -76t85 -116t31.5 -147q0 -81 -34 -147t-90.5 -112.5t-128.5 -71.5t-148 -25t-144.5 29t-120.5 79t-82.5 116.5t-30.5 142.5q0 77 33 142t87.5 112.5t125 74t144.5 26.5z" />
<glyph unicode="&#xc6;" horiz-adv-x="2026" d="M863 1375l-284 -835h284v835zM1948 1384h-693v-409h596v-211h-596v-519h702v-245h-1094v359h-332l-118 -359h-386l619 1630h1302v-246z" />
<glyph unicode="&#xc7;" horiz-adv-x="1358" d="M502 809q0 -278 90.5 -414t270.5 -136q88 0 173 25.5t174 87.5l107 -280q-30 -26 -79.5 -48t-113 -38t-139.5 -25t-160 -9q-167 0 -300 56t-226 164t-143 266t-50 362q0 208 49.5 365t142.5 262t226 157.5t300 52.5q58 0 123 -5.5t130 -20t127.5 -38.5t115.5 -61 l-109 -280q-53 34 -99 57t-89.5 36.5t-85 19.5t-84.5 6q-90 0 -156 -31.5t-109.5 -99.5t-64.5 -174.5t-21 -256.5zM712 -491q30 -13 63 -23q28 -8 62.5 -15t69.5 -7q25 0 48 4t40.5 16t28 32.5t10.5 53.5q0 78 -67.5 112.5t-201.5 34.5l22 306h124l-13 -186q29 0 65.5 -5.5 t74.5 -18.5t74 -33t64.5 -50t46 -69.5t17.5 -90.5q0 -60 -21.5 -108.5t-61 -82.5t-95.5 -52.5t-125 -18.5q-54 0 -96 9t-71 20t-44 20t-14 9v143z" />
<glyph unicode="&#xc8;" horiz-adv-x="1356" d="M158 0v1630h1116v-251h-718v-415h625v-245h-625v-474h727v-245h-1125zM462 2408l329 155l215 -632l-171 -82z" />
<glyph unicode="&#xc9;" horiz-adv-x="1356" d="M158 0v1630h1116v-251h-718v-415h625v-245h-625v-474h727v-245h-1125zM575 1927l214 634l331 -156l-372 -559z" />
<glyph unicode="&#xca;" horiz-adv-x="1356" d="M158 0v1630h1116v-251h-718v-415h625v-245h-625v-474h727v-245h-1125zM860 2489l264 -644h-298l-105 398l-107 -406h-295l264 652h277z" />
<glyph unicode="&#xcb;" horiz-adv-x="1356" d="M158 0v1630h1116v-251h-718v-415h625v-245h-625v-474h727v-245h-1125zM155 2054q0 44 16 82t44 66t66 44t82 16q43 0 81.5 -16t67 -44t45.5 -66t17 -82t-17 -82t-45.5 -66.5t-67 -44.5t-81.5 -16q-45 0 -83.5 16.5t-66 44.5t-43 66t-15.5 82zM865 2054q0 44 16 82 t44.5 66t66 44t81.5 16q43 0 81.5 -16t67 -44t45.5 -66t17 -82t-17 -82t-45.5 -66.5t-67 -44.5t-81.5 -16q-45 0 -83.5 16.5t-66 44.5t-43 66t-15.5 82z" />
<glyph unicode="&#xcc;" horiz-adv-x="901" d="M249 181v1267h-172v182h746v-182h-174v-1267h174v-181h-746v181h172zM183 2418l329 155l215 -632l-171 -82z" />
<glyph unicode="&#xcd;" horiz-adv-x="901" d="M249 181v1267h-172v182h746v-182h-174v-1267h174v-181h-746v181h172zM297 1937l214 634l331 -156l-372 -559z" />
<glyph unicode="&#xce;" horiz-adv-x="901" d="M249 181v1267h-172v182h746v-182h-174v-1267h174v-181h-746v181h172zM582 2499l264 -644h-298l-105 398l-107 -406h-295l264 652h277z" />
<glyph unicode="&#xcf;" horiz-adv-x="901" d="M249 181v1267h-172v182h746v-182h-174v-1267h174v-181h-746v181h172zM-123 2064q0 44 16 82t44 66t66 44t82 16q43 0 81.5 -16t67 -44t45.5 -66t17 -82t-17 -82t-45.5 -66.5t-67 -44.5t-81.5 -16q-45 0 -83.5 16.5t-66 44.5t-43 66t-15.5 82zM587 2064q0 44 16 82 t44.5 66t66 44t81.5 16q43 0 81.5 -16t67 -44t45.5 -66t17 -82t-17 -82t-45.5 -66.5t-67 -44.5t-81.5 -16q-45 0 -83.5 16.5t-66 44.5t-43 66t-15.5 82z" />
<glyph unicode="&#xd0;" horiz-adv-x="1632" d="M1126 810q0 81 -5 156t-22 140t-49 118t-85.5 91t-132 59t-188.5 21h-81v-447h275v-249h-275v-454h81q107 0 184.5 19.5t131 55t86.5 86.5t50.5 113.5t23.5 136t6 154.5zM1525 807q0 -197 -51 -347.5t-155.5 -252.5t-264.5 -154.5t-378 -52.5h-511v699h-164v249h164v682 h511q422 0 635.5 -204t213.5 -619z" />
<glyph unicode="&#xd1;" horiz-adv-x="1696" d="M1131 0l-620 1076v-1076h-353v1630h420l609 -1060v1060h352v-1630h-408zM1053 1845q-49 0 -107 18.5t-118 50.5q-29 16 -56 30.5t-50.5 25.5t-43 17.5t-34.5 6.5q-12 0 -24 -5.5t-21 -19t-14.5 -36.5t-5.5 -59h-220q0 357 241 357q35 0 65.5 -5.5t58 -14t52.5 -19.5 l50 -22q29 -14 58 -27.5t54.5 -25t46.5 -18.5t35 -7q8 0 14 3t9.5 12.5t5.5 28.5t2 52h233q0 -169 -58.5 -256t-172.5 -87z" />
<glyph unicode="&#xd2;" horiz-adv-x="1691" d="M1584 814q0 -197 -45 -353t-136.5 -264.5t-230.5 -166.5t-327 -58t-326.5 57.5t-230.5 166t-137 264t-45 351.5q0 199 45.5 356.5t137.5 266t231 166t325 57.5q187 0 326 -58t230.5 -166.5t137 -265t45.5 -353.5zM504 817q0 -113 14 -214.5t52 -178t104 -121.5t171 -45 q106 0 173 46.5t104.5 124t51 178.5t13.5 210q0 112 -14.5 212.5t-53 176.5t-105 120.5t-170.5 44.5q-105 0 -171 -45t-103.5 -121.5t-51.5 -176.5t-14 -211zM583 2406l329 155l215 -632l-171 -82z" />
<glyph unicode="&#xd3;" horiz-adv-x="1691" d="M1584 814q0 -197 -45 -353t-136.5 -264.5t-230.5 -166.5t-327 -58t-326.5 57.5t-230.5 166t-137 264t-45 351.5q0 199 45.5 356.5t137.5 266t231 166t325 57.5q187 0 326 -58t230.5 -166.5t137 -265t45.5 -353.5zM504 817q0 -113 14 -214.5t52 -178t104 -121.5t171 -45 q106 0 173 46.5t104.5 124t51 178.5t13.5 210q0 112 -14.5 212.5t-53 176.5t-105 120.5t-170.5 44.5q-105 0 -171 -45t-103.5 -121.5t-51.5 -176.5t-14 -211zM697 1925l214 634l331 -156l-372 -559z" />
<glyph unicode="&#xd4;" horiz-adv-x="1691" d="M1584 814q0 -197 -45 -353t-136.5 -264.5t-230.5 -166.5t-327 -58t-326.5 57.5t-230.5 166t-137 264t-45 351.5q0 199 45.5 356.5t137.5 266t231 166t325 57.5q187 0 326 -58t230.5 -166.5t137 -265t45.5 -353.5zM504 817q0 -113 14 -214.5t52 -178t104 -121.5t171 -45 q106 0 173 46.5t104.5 124t51 178.5t13.5 210q0 112 -14.5 212.5t-53 176.5t-105 120.5t-170.5 44.5q-105 0 -171 -45t-103.5 -121.5t-51.5 -176.5t-14 -211zM982 2487l264 -644h-298l-105 398l-107 -406h-295l264 652h277z" />
<glyph unicode="&#xd5;" horiz-adv-x="1691" d="M1584 814q0 -197 -45 -353t-136.5 -264.5t-230.5 -166.5t-327 -58t-326.5 57.5t-230.5 166t-137 264t-45 351.5q0 199 45.5 356.5t137.5 266t231 166t325 57.5q187 0 326 -58t230.5 -166.5t137 -265t45.5 -353.5zM504 817q0 -113 14 -214.5t52 -178t104 -121.5t171 -45 q106 0 173 46.5t104.5 124t51 178.5t13.5 210q0 112 -14.5 212.5t-53 176.5t-105 120.5t-170.5 44.5q-105 0 -171 -45t-103.5 -121.5t-51.5 -176.5t-14 -211zM1066 1843q-49 0 -107 18.5t-118 50.5q-29 16 -56 30.5t-50.5 25.5t-43 17.5t-34.5 6.5q-12 0 -24 -5.5t-21 -19 t-14.5 -36.5t-5.5 -59h-220q0 357 241 357q35 0 65.5 -5.5t58 -14t52.5 -19.5l50 -22q29 -14 58 -27.5t54.5 -25t46.5 -18.5t35 -7q8 0 14 3t9.5 12.5t5.5 28.5t2 52h233q0 -169 -58.5 -256t-172.5 -87z" />
<glyph unicode="&#xd6;" horiz-adv-x="1691" d="M1584 814q0 -197 -45 -353t-136.5 -264.5t-230.5 -166.5t-327 -58t-326.5 57.5t-230.5 166t-137 264t-45 351.5q0 199 45.5 356.5t137.5 266t231 166t325 57.5q187 0 326 -58t230.5 -166.5t137 -265t45.5 -353.5zM504 817q0 -113 14 -214.5t52 -178t104 -121.5t171 -45 q106 0 173 46.5t104.5 124t51 178.5t13.5 210q0 112 -14.5 212.5t-53 176.5t-105 120.5t-170.5 44.5q-105 0 -171 -45t-103.5 -121.5t-51.5 -176.5t-14 -211zM276 2052q0 44 16 82t44 66t66 44t82 16q43 0 81.5 -16t67 -44t45.5 -66t17 -82t-17 -82t-45.5 -66.5t-67 -44.5 t-81.5 -16q-45 0 -83.5 16.5t-66 44.5t-43 66t-15.5 82zM986 2052q0 44 16 82t44.5 66t66 44t81.5 16q43 0 81.5 -16t67 -44t45.5 -66t17 -82t-17 -82t-45.5 -66.5t-67 -44.5t-81.5 -16q-45 0 -83.5 16.5t-66 44.5t-43 66t-15.5 82z" />
<glyph unicode="&#xd7;" horiz-adv-x="1357" d="M404 1050l296 -279l297 279l197 -216l-282 -262l282 -264l-197 -215l-297 278l-296 -278l-196 215l281 264l-281 262z" />
<glyph unicode="&#xd8;" horiz-adv-x="1691" d="M493 40q-101 46 -174 120.5t-120.5 174t-70 221t-22.5 260.5q0 190 43 345t133.5 265.5t230.5 170.5t333 60q148 0 282 -39l72 181l139 -46l-79 -196q162 -100 243 -288t81 -453q0 -195 -44.5 -351.5t-135.5 -266t-230 -168t-329 -58.5q-127 0 -209 21l-66 -167l-144 46z M748 271q31 -8 54.5 -10.5t42.5 -2.5q102 0 168 44t105 120t54 177.5t15 216.5t-13 210t-53 180zM622 311q4 10 4 22q0 13 -7 19l391 976q-38 20 -76.5 31.5t-89.5 11.5q-99 0 -164.5 -42t-104.5 -116.5t-55 -176t-16 -220.5q0 -77 6 -149.5t19.5 -137t36 -120t56.5 -98.5z " />
<glyph unicode="&#xd9;" horiz-adv-x="1636" d="M819 258q70 0 118 16.5t78.5 47t46.5 74t23 97.5t8 117.5t1 133.5v886h398v-882q0 -195 -37.5 -340.5t-118.5 -242t-209 -145t-309 -48.5q-180 0 -307.5 48.5t-208.5 145t-119 242t-38 340.5v882h399v-886q0 -70 0.5 -133t7 -117t22.5 -98t46.5 -74.5t78.5 -47t120 -16.5 zM549 2408l329 155l215 -632l-171 -82z" />
<glyph unicode="&#xda;" horiz-adv-x="1636" d="M819 258q70 0 118 16.5t78.5 47t46.5 74t23 97.5t8 117.5t1 133.5v886h398v-882q0 -195 -37.5 -340.5t-118.5 -242t-209 -145t-309 -48.5q-180 0 -307.5 48.5t-208.5 145t-119 242t-38 340.5v882h399v-886q0 -70 0.5 -133t7 -117t22.5 -98t46.5 -74.5t78.5 -47t120 -16.5 zM663 1927l214 634l331 -156l-372 -559z" />
<glyph unicode="&#xdb;" horiz-adv-x="1636" d="M819 258q70 0 118 16.5t78.5 47t46.5 74t23 97.5t8 117.5t1 133.5v886h398v-882q0 -195 -37.5 -340.5t-118.5 -242t-209 -145t-309 -48.5q-180 0 -307.5 48.5t-208.5 145t-119 242t-38 340.5v882h399v-886q0 -70 0.5 -133t7 -117t22.5 -98t46.5 -74.5t78.5 -47t120 -16.5 zM948 2489l264 -644h-298l-105 398l-107 -406h-295l264 652h277z" />
<glyph unicode="&#xdc;" horiz-adv-x="1636" d="M819 258q70 0 118 16.5t78.5 47t46.5 74t23 97.5t8 117.5t1 133.5v886h398v-882q0 -195 -37.5 -340.5t-118.5 -242t-209 -145t-309 -48.5q-180 0 -307.5 48.5t-208.5 145t-119 242t-38 340.5v882h399v-886q0 -70 0.5 -133t7 -117t22.5 -98t46.5 -74.5t78.5 -47t120 -16.5 zM242 2054q0 44 16 82t44 66t66 44t82 16q43 0 81.5 -16t67 -44t45.5 -66t17 -82t-17 -82t-45.5 -66.5t-67 -44.5t-81.5 -16q-45 0 -83.5 16.5t-66 44.5t-43 66t-15.5 82zM952 2054q0 44 16 82t44.5 66t66 44t81.5 16q43 0 81.5 -16t67 -44t45.5 -66t17 -82t-17 -82 t-45.5 -66.5t-67 -44.5t-81.5 -16q-45 0 -83.5 16.5t-66 44.5t-43 66t-15.5 82z" />
<glyph unicode="&#xdd;" horiz-adv-x="1268" d="M942 1630h404l-526 -1091v-539h-376v539l-519 1091h397l309 -673zM484 1927l214 634l331 -156l-372 -559z" />
<glyph unicode="&#xde;" horiz-adv-x="1375" d="M926 776q0 183 -50 275.5t-146 92.5q-53 0 -87 -8.5t-55 -22t-32 -29t-20 -29.5v-559q37 -55 90.5 -82.5t124.5 -30.5q44 0 73.5 18.5t49 49t30 70.5t15.5 83.5t6 88t1 83.5zM829 137q-198 0 -293 143v-529h-378v1879h357v-414q18 43 49.5 76t71.5 56.5t86 35.5t93 13 q122 0 213.5 -46.5t153.5 -130.5t93.5 -201t33.5 -258q0 -150 -34.5 -266.5t-97.5 -196t-151.5 -120.5t-196.5 -41z" />
<glyph unicode="&#xdf;" horiz-adv-x="1648" d="M714 704q-1 4 -1.5 12t-0.5 31v67.5v122.5q191 0 278.5 55.5t87.5 173.5q0 43 -8.5 80.5t-36 65.5t-78.5 44t-136 16q-76 0 -126 -19.5t-80 -62t-42 -111.5t-12 -168v-1011h-401v1011q0 152 38.5 268t119 194t205.5 118t298 40q132 0 229 -21t164.5 -56t109.5 -80.5 t65.5 -94t31.5 -96.5t8 -89q0 -62 -19 -120t-61 -105.5t-109.5 -80.5t-164.5 -44q261 -26 389 -147t128 -334q0 -98 -34.5 -179t-96.5 -144.5t-147.5 -110.5t-187 -78t-215.5 -46t-232 -15v303q165 12 266 37.5t156.5 61.5t74.5 81t19 96q0 170 -121 252.5t-358 82.5z" />
<glyph unicode="&#xe0;" horiz-adv-x="1280" d="M622 985q-109 0 -200.5 -23t-184.5 -66l-88 223q93 58 215.5 87.5t270.5 29.5q135 0 231.5 -34.5t158.5 -102.5t91.5 -168t29.5 -230v-701h-293l-51 152q-28 -48 -59 -81.5t-68 -55.5t-81.5 -32t-99.5 -10q-99 0 -177 26t-132.5 77t-83.5 126t-29 173q0 99 38.5 170.5 t112.5 118t182 69t248 22.5q29 0 58.5 -2t59.5 -7q0 40 -3.5 82t-18 77t-44.5 57.5t-83 22.5zM593 227q106 0 178 97v230q-33 2 -57 4t-28 2q-72 0 -118 -10.5t-72 -30t-36 -48t-10 -64.5q0 -83 36.5 -131.5t106.5 -48.5zM375 1971l329 155l215 -632l-171 -82z" />
<glyph unicode="&#xe1;" horiz-adv-x="1280" d="M622 985q-109 0 -200.5 -23t-184.5 -66l-88 223q93 58 215.5 87.5t270.5 29.5q135 0 231.5 -34.5t158.5 -102.5t91.5 -168t29.5 -230v-701h-293l-51 152q-28 -48 -59 -81.5t-68 -55.5t-81.5 -32t-99.5 -10q-99 0 -177 26t-132.5 77t-83.5 126t-29 173q0 99 38.5 170.5 t112.5 118t182 69t248 22.5q29 0 58.5 -2t59.5 -7q0 40 -3.5 82t-18 77t-44.5 57.5t-83 22.5zM593 227q106 0 178 97v230q-33 2 -57 4t-28 2q-72 0 -118 -10.5t-72 -30t-36 -48t-10 -64.5q0 -83 36.5 -131.5t106.5 -48.5zM489 1490l214 634l331 -156l-372 -559z" />
<glyph unicode="&#xe2;" horiz-adv-x="1280" d="M622 985q-109 0 -200.5 -23t-184.5 -66l-88 223q93 58 215.5 87.5t270.5 29.5q135 0 231.5 -34.5t158.5 -102.5t91.5 -168t29.5 -230v-701h-293l-51 152q-28 -48 -59 -81.5t-68 -55.5t-81.5 -32t-99.5 -10q-99 0 -177 26t-132.5 77t-83.5 126t-29 173q0 99 38.5 170.5 t112.5 118t182 69t248 22.5q29 0 58.5 -2t59.5 -7q0 40 -3.5 82t-18 77t-44.5 57.5t-83 22.5zM593 227q106 0 178 97v230q-33 2 -57 4t-28 2q-72 0 -118 -10.5t-72 -30t-36 -48t-10 -64.5q0 -83 36.5 -131.5t106.5 -48.5zM775 2052l264 -644h-298l-105 398l-107 -406h-295 l264 652h277z" />
<glyph unicode="&#xe3;" horiz-adv-x="1280" d="M622 985q-109 0 -200.5 -23t-184.5 -66l-88 223q93 58 215.5 87.5t270.5 29.5q135 0 231.5 -34.5t158.5 -102.5t91.5 -168t29.5 -230v-701h-293l-51 152q-28 -48 -59 -81.5t-68 -55.5t-81.5 -32t-99.5 -10q-99 0 -177 26t-132.5 77t-83.5 126t-29 173q0 99 38.5 170.5 t112.5 118t182 69t248 22.5q29 0 58.5 -2t59.5 -7q0 40 -3.5 82t-18 77t-44.5 57.5t-83 22.5zM593 227q106 0 178 97v230q-33 2 -57 4t-28 2q-72 0 -118 -10.5t-72 -30t-36 -48t-10 -64.5q0 -83 36.5 -131.5t106.5 -48.5zM858 1408q-49 0 -107 18.5t-118 50.5 q-29 16 -56 30.5t-50.5 25.5t-43 17.5t-34.5 6.5q-12 0 -24 -5.5t-21 -19t-14.5 -36.5t-5.5 -59h-220q0 357 241 357q35 0 65.5 -5.5t58 -14t52.5 -19.5l50 -22q29 -14 58 -27.5t54.5 -25t46.5 -18.5t35 -7q8 0 14 3t9.5 12.5t5.5 28.5t2 52h233q0 -169 -58.5 -256 t-172.5 -87z" />
<glyph unicode="&#xe4;" horiz-adv-x="1280" d="M622 985q-109 0 -200.5 -23t-184.5 -66l-88 223q93 58 215.5 87.5t270.5 29.5q135 0 231.5 -34.5t158.5 -102.5t91.5 -168t29.5 -230v-701h-293l-51 152q-28 -48 -59 -81.5t-68 -55.5t-81.5 -32t-99.5 -10q-99 0 -177 26t-132.5 77t-83.5 126t-29 173q0 99 38.5 170.5 t112.5 118t182 69t248 22.5q29 0 58.5 -2t59.5 -7q0 40 -3.5 82t-18 77t-44.5 57.5t-83 22.5zM593 227q106 0 178 97v230q-33 2 -57 4t-28 2q-72 0 -118 -10.5t-72 -30t-36 -48t-10 -64.5q0 -83 36.5 -131.5t106.5 -48.5zM69 1618q0 44 16 82t44 66t66 44t82 16 q43 0 81.5 -16t67 -44t45.5 -66t17 -82t-17 -82t-45.5 -66.5t-67 -44.5t-81.5 -16q-45 0 -83.5 16.5t-66 44.5t-43 66t-15.5 82zM779 1618q0 44 16 82t44.5 66t66 44t81.5 16q43 0 81.5 -16t67 -44t45.5 -66t17 -82t-17 -82t-45.5 -66.5t-67 -44.5t-81.5 -16 q-45 0 -83.5 16.5t-66 44.5t-43 66t-15.5 82z" />
<glyph unicode="&#xe5;" horiz-adv-x="1280" d="M622 985q-109 0 -200.5 -23t-184.5 -66l-88 223q93 58 215.5 87.5t270.5 29.5q135 0 231.5 -34.5t158.5 -102.5t91.5 -168t29.5 -230v-701h-293l-51 152q-28 -48 -59 -81.5t-68 -55.5t-81.5 -32t-99.5 -10q-99 0 -177 26t-132.5 77t-83.5 126t-29 173q0 99 38.5 170.5 t112.5 118t182 69t248 22.5q29 0 58.5 -2t59.5 -7q0 40 -3.5 82t-18 77t-44.5 57.5t-83 22.5zM593 227q106 0 178 97v230q-33 2 -57 4t-28 2q-72 0 -118 -10.5t-72 -30t-36 -48t-10 -64.5q0 -83 36.5 -131.5t106.5 -48.5zM449 1770q0 -39 15 -73t41 -58.5t60.5 -38.5 t72.5 -14q39 0 73 14t60 38.5t41 58.5t15 73q0 40 -15.5 74t-41.5 59t-60 39.5t-72 14.5q-39 0 -73.5 -14.5t-60 -40t-40.5 -59.5t-15 -73zM639 2132q78 0 148.5 -27t124 -76t85 -116t31.5 -147q0 -81 -34 -147t-90.5 -112.5t-128.5 -71.5t-148 -25t-144.5 29t-120.5 79 t-82.5 116.5t-30.5 142.5q0 77 33 142t87.5 112.5t125 74t144.5 26.5z" />
<glyph unicode="&#xe6;" horiz-adv-x="1893" d="M1505 697q0 60 -10 110t-32 86t-58 56.5t-88 20.5q-51 0 -86.5 -22.5t-58 -60t-34 -87t-14.5 -103.5h381zM1750 80q-1 0 -16.5 -7t-42.5 -17.5t-64 -23t-81 -23t-92.5 -17.5t-99.5 -7q-74 0 -135 9.5t-112.5 33t-95 63.5t-80.5 101q-38 -66 -89.5 -107t-111 -64 t-123 -31.5t-124.5 -8.5q-204 0 -308.5 101.5t-104.5 305.5q0 79 22.5 136.5t61.5 98t93 66.5t117.5 40.5t133.5 20t142 5.5t132 -9q0 39 -2.5 76.5t-17.5 67t-46.5 48t-89.5 18.5q-46 0 -94 -6t-94 -15t-87 -19t-72.5 -19t-50.5 -15t-20 -6l-48 242q0 -1 19.5 6.5 t53.5 19.5t80 26t99.5 26.5t112 20.5t116.5 8q250 0 349 -146q26 37 62 64.5t80.5 45.5t95.5 27t106 9q115 0 206 -39.5t153 -110.5t95 -170t33 -218v-88t1 -87h-688q2 -61 18.5 -111t47 -86t75.5 -56t105 -20q59 0 114.5 12.5t99 27t70 27t28.5 12.5zM422 401 q0 -78 42 -122t111 -44q57 0 103.5 24t93.5 65v230q-28 2 -52 4t-45 2q-63 0 -110.5 -7.5t-79 -25.5t-47.5 -49t-16 -77z" />
<glyph unicode="&#xe7;" horiz-adv-x="1131" d="M690 -27q-126 0 -221 29t-163.5 77.5t-113.5 112t-72 132t-37.5 137.5t-10.5 129q0 138 42.5 256t122.5 205t195 136t261 49q80 0 141.5 -9.5t108 -24.5t79 -33t54.5 -34l-68 -242q-22 15 -50 31t-62.5 29.5t-77 22.5t-92.5 9q-61 0 -111.5 -21t-86.5 -66.5t-55.5 -117 t-19.5 -173.5q0 -191 75 -285.5t232 -94.5q72 0 137 26.5t110 61.5l68 -241q-24 -18 -59 -36t-82 -32.5t-107.5 -23.5t-136.5 -9zM550 -495q30 -13 63 -23q28 -8 62.5 -15t69.5 -7q25 0 48 4t40.5 16t28 32.5t10.5 53.5q0 78 -67.5 112.5t-201.5 34.5l22 306h124l-13 -186 q29 0 65.5 -5.5t74.5 -18.5t74 -33t64.5 -50t46 -69.5t17.5 -90.5q0 -60 -21.5 -108.5t-61 -82.5t-95.5 -52.5t-125 -18.5q-54 0 -96 9t-71 20t-44 20t-14 9v143z" />
<glyph unicode="&#xe8;" horiz-adv-x="1253" d="M1111 69q-99 -49 -197 -72.5t-207 -23.5q-143 0 -260 39t-200 114t-129 184.5t-46 249.5q0 163 39.5 289.5t116 212t188.5 130t258 44.5q121 0 213.5 -41t155.5 -114t95.5 -174t32.5 -221v-86.5t1 -87.5h-711q2 -63 21.5 -115.5t55 -90t86 -58.5t113.5 -21q90 0 164.5 23 t140.5 71zM866 694q0 149 -48.5 218t-152.5 73q-54 -4 -93 -28t-64 -62.5t-36.5 -89.5t-11.5 -108h406v-3zM409 1969l329 155l215 -632l-171 -82z" />
<glyph unicode="&#xe9;" horiz-adv-x="1253" d="M1111 69q-99 -49 -197 -72.5t-207 -23.5q-143 0 -260 39t-200 114t-129 184.5t-46 249.5q0 163 39.5 289.5t116 212t188.5 130t258 44.5q121 0 213.5 -41t155.5 -114t95.5 -174t32.5 -221v-86.5t1 -87.5h-711q2 -63 21.5 -115.5t55 -90t86 -58.5t113.5 -21q90 0 164.5 23 t140.5 71zM866 694q0 149 -48.5 218t-152.5 73q-54 -4 -93 -28t-64 -62.5t-36.5 -89.5t-11.5 -108h406v-3zM524 1488l214 634l331 -156l-372 -559z" />
<glyph unicode="&#xea;" horiz-adv-x="1253" d="M1111 69q-99 -49 -197 -72.5t-207 -23.5q-143 0 -260 39t-200 114t-129 184.5t-46 249.5q0 163 39.5 289.5t116 212t188.5 130t258 44.5q121 0 213.5 -41t155.5 -114t95.5 -174t32.5 -221v-86.5t1 -87.5h-711q2 -63 21.5 -115.5t55 -90t86 -58.5t113.5 -21q90 0 164.5 23 t140.5 71zM866 694q0 149 -48.5 218t-152.5 73q-54 -4 -93 -28t-64 -62.5t-36.5 -89.5t-11.5 -108h406v-3zM809 2050l264 -644h-298l-105 398l-107 -406h-295l264 652h277z" />
<glyph unicode="&#xeb;" horiz-adv-x="1253" d="M1111 69q-99 -49 -197 -72.5t-207 -23.5q-143 0 -260 39t-200 114t-129 184.5t-46 249.5q0 163 39.5 289.5t116 212t188.5 130t258 44.5q121 0 213.5 -41t155.5 -114t95.5 -174t32.5 -221v-86.5t1 -87.5h-711q2 -63 21.5 -115.5t55 -90t86 -58.5t113.5 -21q90 0 164.5 23 t140.5 71zM866 694q0 149 -48.5 218t-152.5 73q-54 -4 -93 -28t-64 -62.5t-36.5 -89.5t-11.5 -108h406v-3zM103 1616q0 44 16 82t44 66t66 44t82 16q43 0 81.5 -16t67 -44t45.5 -66t17 -82t-17 -82t-45.5 -66.5t-67 -44.5t-81.5 -16q-45 0 -83.5 16.5t-66 44.5t-43 66 t-15.5 82zM813 1616q0 44 16 82t44.5 66t66 44t81.5 16q43 0 81.5 -16t67 -44t45.5 -66t17 -82t-17 -82t-45.5 -66.5t-67 -44.5t-81.5 -16q-45 0 -83.5 16.5t-66 44.5t-43 66t-15.5 82z" />
<glyph unicode="&#xec;" horiz-adv-x="772" d="M24 1892l330 156l214 -633l-171 -81zM225 0v1198h379v-1198h-379z" />
<glyph unicode="&#xed;" horiz-adv-x="772" d="M228 1372l214 633l331 -155l-373 -559zM225 0v1198h379v-1198h-379z" />
<glyph unicode="&#xee;" horiz-adv-x="772" d="M526 1931l262 -642h-298l-105 396l-105 -404h-296l263 650h279zM225 0v1198h379v-1198h-379z" />
<glyph unicode="&#xef;" horiz-adv-x="772" d="M-175 1483q0 45 16 83t44.5 66t66 44t81.5 16q43 0 81.5 -16t67 -44t45.5 -66t17 -83q0 -44 -17 -82t-45.5 -66t-67 -44t-81.5 -16q-45 0 -83.5 16.5t-66 44.5t-43 66t-15.5 81zM535 1483q0 45 16 83t44.5 66t66 44t81.5 16q43 0 81.5 -16t67 -44t45.5 -66t17 -83 q0 -44 -17 -82t-45.5 -66t-67 -44t-81.5 -16q-45 0 -83 16.5t-66 44.5t-43.5 66t-15.5 81zM225 0v1198h379v-1198h-379z" />
<glyph unicode="&#xf0;" horiz-adv-x="1294" d="M1224 624q0 -170 -39 -291t-114 -198.5t-185.5 -114t-253.5 -36.5t-248 50.5t-174.5 136.5t-103.5 201.5t-34 246.5q0 134 32 245.5t92 191.5t145.5 124.5t191.5 44.5t183 -34.5t131 -108.5q-5 26 -19 60.5t-37 73.5t-54 80.5t-68 81.5l-241 -78l-44 160l152 50 q-40 35 -77.5 62t-75.5 48l162 191q41 -26 73.5 -46t64 -42.5t66 -50.5t79.5 -68l305 99l43 -160l-218 -72q57 -74 105.5 -159t84 -187.5t56 -226.5t20.5 -274zM451 606q0 -68 9 -134.5t31.5 -118.5t61 -84t97.5 -32q55 0 93 29t61 76t33 106t10 118q0 85 -0.5 169t-0.5 169 q-56 32 -110.5 51t-123.5 19q-41 0 -69 -16.5t-46 -44.5t-27 -65t-13.5 -78t-5 -83.5t-0.5 -80.5z" />
<glyph unicode="&#xf1;" horiz-adv-x="1386" d="M522 1047q45 98 118 143.5t184 45.5q223 0 325.5 -121t102.5 -370v-745h-378v773q0 62 -9.5 103t-29 65t-49 34t-68.5 10q-71 0 -113.5 -30t-64.5 -73v-882h-378v1198h287zM913 1406q-49 0 -107 18.5t-118 50.5q-29 16 -56 30.5t-50.5 25.5t-43 17.5t-34.5 6.5 q-12 0 -24 -5.5t-21 -19t-14.5 -36.5t-5.5 -59h-220q0 357 241 357q35 0 65.5 -5.5t58 -14t52.5 -19.5l50 -22q29 -14 58 -27.5t54.5 -25t46.5 -18.5t35 -7q8 0 14 3t9.5 12.5t5.5 28.5t2 52h233q0 -169 -58.5 -256t-172.5 -87z" />
<glyph unicode="&#xf2;" horiz-adv-x="1329" d="M665 229q53 0 93 20.5t67 65.5t41 116.5t14 173.5q0 101 -14 173.5t-41 118.5t-67 67.5t-93 21.5t-93 -21.5t-66.5 -67.5t-40 -118t-13.5 -174q0 -42 2 -86t9.5 -85.5t21.5 -78t37.5 -64.5t58.5 -44.5t84 -17.5zM1256 602q0 -152 -39.5 -269t-115.5 -196.5t-185.5 -120.5 t-250.5 -41q-140 0 -250 41t-186 120.5t-116 196.5t-40 269q0 154 40.5 272.5t116.5 199t186 122t248 41.5t247.5 -41.5t186 -122t117.5 -199t41 -272.5zM396 1969l329 155l215 -632l-171 -82z" />
<glyph unicode="&#xf3;" horiz-adv-x="1329" d="M665 229q53 0 93 20.5t67 65.5t41 116.5t14 173.5q0 101 -14 173.5t-41 118.5t-67 67.5t-93 21.5t-93 -21.5t-66.5 -67.5t-40 -118t-13.5 -174q0 -42 2 -86t9.5 -85.5t21.5 -78t37.5 -64.5t58.5 -44.5t84 -17.5zM1256 602q0 -152 -39.5 -269t-115.5 -196.5t-185.5 -120.5 t-250.5 -41q-140 0 -250 41t-186 120.5t-116 196.5t-40 269q0 154 40.5 272.5t116.5 199t186 122t248 41.5t247.5 -41.5t186 -122t117.5 -199t41 -272.5zM509 1488l214 634l331 -156l-372 -559z" />
<glyph unicode="&#xf4;" horiz-adv-x="1329" d="M665 229q53 0 93 20.5t67 65.5t41 116.5t14 173.5q0 101 -14 173.5t-41 118.5t-67 67.5t-93 21.5t-93 -21.5t-66.5 -67.5t-40 -118t-13.5 -174q0 -42 2 -86t9.5 -85.5t21.5 -78t37.5 -64.5t58.5 -44.5t84 -17.5zM1256 602q0 -152 -39.5 -269t-115.5 -196.5t-185.5 -120.5 t-250.5 -41q-140 0 -250 41t-186 120.5t-116 196.5t-40 269q0 154 40.5 272.5t116.5 199t186 122t248 41.5t247.5 -41.5t186 -122t117.5 -199t41 -272.5zM795 2050l264 -644h-298l-105 398l-107 -406h-295l264 652h277z" />
<glyph unicode="&#xf5;" horiz-adv-x="1329" d="M665 229q53 0 93 20.5t67 65.5t41 116.5t14 173.5q0 101 -14 173.5t-41 118.5t-67 67.5t-93 21.5t-93 -21.5t-66.5 -67.5t-40 -118t-13.5 -174q0 -42 2 -86t9.5 -85.5t21.5 -78t37.5 -64.5t58.5 -44.5t84 -17.5zM1256 602q0 -152 -39.5 -269t-115.5 -196.5t-185.5 -120.5 t-250.5 -41q-140 0 -250 41t-186 120.5t-116 196.5t-40 269q0 154 40.5 272.5t116.5 199t186 122t248 41.5t247.5 -41.5t186 -122t117.5 -199t41 -272.5zM879 1406q-49 0 -107 18.5t-118 50.5q-29 16 -56 30.5t-50.5 25.5t-43 17.5t-34.5 6.5q-12 0 -24 -5.5t-21 -19 t-14.5 -36.5t-5.5 -59h-220q0 357 241 357q35 0 65.5 -5.5t58 -14t52.5 -19.5l50 -22q29 -14 58 -27.5t54.5 -25t46.5 -18.5t35 -7q8 0 14 3t9.5 12.5t5.5 28.5t2 52h233q0 -169 -58.5 -256t-172.5 -87z" />
<glyph unicode="&#xf6;" horiz-adv-x="1329" d="M665 229q53 0 93 20.5t67 65.5t41 116.5t14 173.5q0 101 -14 173.5t-41 118.5t-67 67.5t-93 21.5t-93 -21.5t-66.5 -67.5t-40 -118t-13.5 -174q0 -42 2 -86t9.5 -85.5t21.5 -78t37.5 -64.5t58.5 -44.5t84 -17.5zM1256 602q0 -152 -39.5 -269t-115.5 -196.5t-185.5 -120.5 t-250.5 -41q-140 0 -250 41t-186 120.5t-116 196.5t-40 269q0 154 40.5 272.5t116.5 199t186 122t248 41.5t247.5 -41.5t186 -122t117.5 -199t41 -272.5zM91 1616q0 44 16 82t44 66t66 44t82 16q43 0 81.5 -16t67 -44t45.5 -66t17 -82t-17 -82t-45.5 -66.5t-67 -44.5 t-81.5 -16q-45 0 -83.5 16.5t-66 44.5t-43 66t-15.5 82zM801 1616q0 44 16 82t44.5 66t66 44t81.5 16q43 0 81.5 -16t67 -44t45.5 -66t17 -82t-17 -82t-45.5 -66.5t-67 -44.5t-81.5 -16q-45 0 -83.5 16.5t-66 44.5t-43 66t-15.5 82z" />
<glyph unicode="&#xf7;" horiz-adv-x="1242" d="M418 1212q0 44 15 82.5t42 66.5t64.5 44t81.5 16t81.5 -16t64.5 -44.5t42.5 -66.5t15.5 -82t-15 -82t-42 -66t-64.5 -44t-82.5 -16t-82.5 16.5t-64 44.5t-41.5 66t-15 81zM421 316q0 44 15.5 82.5t42.5 66.5t64.5 44t81.5 16t81 -16.5t64 -44.5t42.5 -66.5t15.5 -81.5 q0 -44 -15 -81.5t-42 -66t-64 -44.5t-82 -16t-82.5 16.5t-64.5 45t-42 66t-15 80.5zM84 621v284h1069v-284h-1069z" />
<glyph unicode="&#xf8;" horiz-adv-x="1329" d="M731 999q-23 6 -67 6q-24 0 -53 -3.5t-58.5 -16.5t-58 -37.5t-50.5 -66.5t-35.5 -104t-13.5 -150q0 -95 14.5 -161.5t32.5 -108.5t32 -61l15 -18v1zM461 -180l-111 37l58 170q-168 64 -252 209t-84 365q0 147 40 262.5t115.5 196t185.5 123t251 42.5q36 0 68.5 -3 t65.5 -8l66 195l109 -38l-62 -187q84 -30 148 -83.5t107.5 -128t66 -168t22.5 -203.5q0 -144 -39 -258t-114 -194t-185.5 -122.5t-252.5 -42.5q-77 0 -143 12zM664 202q63 0 115 26t88.5 77t57 126t20.5 173q0 104 -17.5 168t-38.5 99t-39 47t-19 12l-239 -722 q11 -4 28.5 -5t43.5 -1z" />
<glyph unicode="&#xf9;" horiz-adv-x="1370" d="M507 435q0 -46 6.5 -85t23.5 -67t46 -43.5t74 -15.5q57 0 97.5 25t74.5 68v881h379v-1198h-267l-84 183q-13 -56 -39 -95.5t-62.5 -65t-82 -37.5t-96.5 -12q-227 0 -335 123.5t-108 367.5v734h373v-763zM414 1969l329 155l215 -632l-171 -82z" />
<glyph unicode="&#xfa;" horiz-adv-x="1370" d="M507 435q0 -46 6.5 -85t23.5 -67t46 -43.5t74 -15.5q57 0 97.5 25t74.5 68v881h379v-1198h-267l-84 183q-13 -56 -39 -95.5t-62.5 -65t-82 -37.5t-96.5 -12q-227 0 -335 123.5t-108 367.5v734h373v-763zM528 1488l214 634l331 -156l-372 -559z" />
<glyph unicode="&#xfb;" horiz-adv-x="1370" d="M507 435q0 -46 6.5 -85t23.5 -67t46 -43.5t74 -15.5q57 0 97.5 25t74.5 68v881h379v-1198h-267l-84 183q-13 -56 -39 -95.5t-62.5 -65t-82 -37.5t-96.5 -12q-227 0 -335 123.5t-108 367.5v734h373v-763zM813 2050l264 -644h-298l-105 398l-107 -406h-295l264 652h277z " />
<glyph unicode="&#xfc;" horiz-adv-x="1370" d="M507 435q0 -46 6.5 -85t23.5 -67t46 -43.5t74 -15.5q57 0 97.5 25t74.5 68v881h379v-1198h-267l-84 183q-13 -56 -39 -95.5t-62.5 -65t-82 -37.5t-96.5 -12q-227 0 -335 123.5t-108 367.5v734h373v-763zM108 1616q0 44 16 82t44 66t66 44t82 16q43 0 81.5 -16t67 -44 t45.5 -66t17 -82t-17 -82t-45.5 -66.5t-67 -44.5t-81.5 -16q-45 0 -83.5 16.5t-66 44.5t-43 66t-15.5 82zM818 1616q0 44 16 82t44.5 66t66 44t81.5 16q43 0 81.5 -16t67 -44t45.5 -66t17 -82t-17 -82t-45.5 -66.5t-67 -44.5t-81.5 -16q-45 0 -83.5 16.5t-66 44.5t-43 66 t-15.5 82z" />
<glyph unicode="&#xfd;" horiz-adv-x="1230" d="M0 1198h388l276 -799l188 799h382l-405 -1231q-36 -110 -85 -193.5t-118.5 -140.5t-163.5 -86.5t-220 -30.5l-106 256q100 7 162.5 24.5t101.5 50t61 81.5t40 118zM456 1488l214 634l331 -156l-372 -559z" />
<glyph unicode="&#xfe;" horiz-adv-x="1391" d="M936 613q0 92 -13.5 158t-39 108.5t-62.5 62.5t-85 20q-50 0 -82 -6.5t-53.5 -16.5t-35 -22.5t-25.5 -25.5v-560q49 -50 105 -73t126 -23q42 0 70.5 18t47 47.5t28 68.5t14 81t5 84t0.5 79zM813 -16q-180 0 -273 129v-524h-378v2042h374v-552q19 35 49 60.5t68 42.5 t82.5 25t92.5 8q125 0 217.5 -46.5t153 -130t90.5 -200t30 -256.5q0 -147 -37 -258.5t-104 -187t-160 -114t-205 -38.5z" />
<glyph unicode="&#xff;" horiz-adv-x="1230" d="M0 1198h388l276 -799l188 799h382l-405 -1231q-36 -110 -85 -193.5t-118.5 -140.5t-163.5 -86.5t-220 -30.5l-106 256q100 7 162.5 24.5t101.5 50t61 81.5t40 118zM37 1616q0 44 16 82t44 66t66 44t82 16q43 0 81.5 -16t67 -44t45.5 -66t17 -82t-17 -82t-45.5 -66.5 t-67 -44.5t-81.5 -16q-45 0 -83.5 16.5t-66 44.5t-43 66t-15.5 82zM747 1616q0 44 16 82t44.5 66t66 44t81.5 16q43 0 81.5 -16t67 -44t45.5 -66t17 -82t-17 -82t-45.5 -66.5t-67 -44.5t-81.5 -16q-45 0 -83.5 16.5t-66 44.5t-43 66t-15.5 82z" />
<glyph unicode="&#x131;" horiz-adv-x="694" d="M159 0v1198h377v-1198h-377z" />
<glyph unicode="&#x152;" horiz-adv-x="2382" d="M1185 0v1630h1115v-251h-718v-415h626v-245h-626v-474h728v-245h-1125zM1584 814q0 -197 -45 -353t-136.5 -264.5t-230.5 -166.5t-327 -58t-326.5 57.5t-230.5 166t-137 264t-45 351.5q0 199 45.5 356.5t137.5 266t231 166t325 57.5q187 0 326 -58t230.5 -166.5t137 -265 t45.5 -353.5zM504 817q0 -113 14 -214.5t52 -178t104 -121.5t171 -45q106 0 173 46.5t104.5 124t51 178.5t13.5 210q0 112 -14.5 212.5t-53 176.5t-105 120.5t-170.5 44.5q-105 0 -171 -45t-103.5 -121.5t-51.5 -176.5t-14 -211z" />
<glyph unicode="&#x153;" horiz-adv-x="2062" d="M1675 697q0 149 -49 217.5t-152 70.5q-51 -2 -89.5 -24t-64 -60t-38 -90t-12.5 -114h405zM665 229q53 0 93.5 20.5t67.5 65.5t40.5 116.5t13.5 173.5q0 101 -13.5 173t-40.5 118.5t-67.5 68t-93.5 21.5q-54 0 -94 -21.5t-66.5 -68t-40 -118.5t-13.5 -173q0 -42 2 -86 t9.5 -85.5t21.5 -78t38 -64.5t59 -44.5t84 -17.5zM1920 69q-97 -48 -195.5 -72t-207.5 -24q-66 0 -127.5 7t-117.5 27t-105.5 55t-91.5 91q-24 -39 -66.5 -71.5t-97 -56.5t-118 -37t-128.5 -13q-143 0 -253 41.5t-186 122t-115 197t-39 266.5q0 155 40.5 274t117 199.5 t186.5 121.5t248 41q63 0 122.5 -9t112.5 -32t97 -61.5t76 -97.5q44 57 88 95t93 61t105.5 32.5t125.5 9.5q122 0 215 -41t155.5 -114t94.5 -174t32 -221v-174h-710q2 -62 21.5 -114.5t55 -90.5t85.5 -59t113 -21q91 0 165.5 23.5t139.5 70.5z" />
<glyph unicode="&#x160;" horiz-adv-x="1375" d="M1308 464q0 -238 -153.5 -365t-451.5 -127q-128 0 -235.5 24.5t-187.5 54.5q-93 34 -170 79l84 277l27 -11q27 -12 70.5 -28.5t100 -36t115.5 -36t115.5 -27.5t102.5 -11q109 0 162 31t53 108q0 30 -6.5 56t-21.5 49t-40.5 42t-64.5 36l-414 175q-151 63 -227 173.5 t-76 266.5q0 80 25 145.5t68.5 117t102 89t126 62.5t140.5 37t145 12q82 0 156 -10t137 -25.5t113.5 -33.5t86 -33.5t54.5 -25.5l18 -10l-92 -259l-18 8q-17 8 -47 20.5t-71.5 27t-89.5 27t-101 20.5t-106 8q-45 0 -95.5 -4t-93 -19t-70.5 -44t-28 -79q0 -12 1.5 -26.5 t12.5 -31t35 -34.5t69 -36l372 -150q87 -35 155.5 -81t116 -105t72 -132.5t24.5 -164.5zM587 1846l-264 644h298l106 -398l105 406h296l-264 -652h-277z" />
<glyph unicode="&#x161;" horiz-adv-x="1154" d="M371 540q-52 21 -99 46t-83 64t-57.5 96.5t-21.5 144.5q0 78 33.5 142t96.5 109t154 69.5t207 24.5q56 0 111 -7t105.5 -17.5t93 -23t73.5 -22.5t48 -16.5t16 -5.5l-68 -239v-1q-3 0 -21.5 6t-48.5 15t-68 19.5t-78 19.5t-80 15t-74 6q-47 0 -77.5 -6.5t-48.5 -19 t-25 -32t-7 -45.5q0 -17 4 -29t13.5 -21.5t26 -17.5t41.5 -18l211 -81q79 -30 138.5 -66t100 -79t61 -94.5t20.5 -114.5q0 -113 -43.5 -187.5t-113.5 -119t-158 -63t-178 -18.5q-63 0 -122 8t-111 20t-95 26t-73.5 25.5t-47 19t-14.5 6.5l68 244q2 0 20.5 -6.5t48.5 -17.5 t69 -23t81.5 -23t85 -18t79.5 -7q49 0 79 7t46 22.5t21.5 39.5t5.5 57q0 21 -25 43.5t-78 44.5zM461 1410l-264 644h298l106 -398l105 406h296l-264 -652h-277z" />
<glyph unicode="&#x178;" horiz-adv-x="1268" d="M942 1630h404l-526 -1091v-539h-376v539l-519 1091h397l309 -673zM64 2054q0 44 16 82t44 66t66 44t82 16q43 0 81.5 -16t67 -44t45.5 -66t17 -82t-17 -82t-45.5 -66.5t-67 -44.5t-81.5 -16q-45 0 -83.5 16.5t-66 44.5t-43 66t-15.5 82zM774 2054q0 44 16 82t44.5 66 t66 44t81.5 16q43 0 81.5 -16t67 -44t45.5 -66t17 -82t-17 -82t-45.5 -66.5t-67 -44.5t-81.5 -16q-45 0 -83.5 16.5t-66 44.5t-43 66t-15.5 82z" />
<glyph unicode="&#x17d;" horiz-adv-x="1255" d="M1201 1393l-704 -1142h706v-251h-1154v243l713 1136h-713v251h1152v-237zM496 1849l-264 644h298l106 -398l105 406h296l-264 -652h-277z" />
<glyph unicode="&#x17e;" horiz-adv-x="1091" d="M109 946v253h888v-245l-483 -703h495v-251h-910v247l500 699h-490zM424 1412l-264 644h298l106 -398l105 406h296l-264 -652h-277z" />
<glyph unicode="&#x192;" horiz-adv-x="909" d="M723 1475q-32 0 -57.5 -11.5t-43 -40t-26.5 -76.5t-9 -121v-17h287v-154h-288l7 -565q2 -103 11 -220t25 -245q-89 0 -180.5 -4t-191.5 -4l-7 115q0 32 -6 67t-12 67q-7 64 -11 123.5t-5 112.5l-8 553h-192v154h191q0 268 103.5 407t323.5 139q54 0 110 -4t122 -21 l7 -278q-35 15 -71 19t-79 4z" />
<glyph unicode="&#x2c6;" horiz-adv-x="1250" d="M808 857l264 -644h-298l-105 398l-107 -406h-295l264 652h277z" />
<glyph unicode="&#x2c7;" horiz-adv-x="1250" d="M531 217l-264 644h298l106 -398l105 406h296l-264 -652h-277z" />
<glyph unicode="&#x2da;" horiz-adv-x="881" d="M251 575q0 -39 15 -73t41 -58.5t60.5 -38.5t72.5 -14q39 0 73 14t60 38.5t41 58.5t15 73q0 40 -15.5 74t-41.5 59t-60 39.5t-72 14.5q-39 0 -73.5 -14.5t-60 -40t-40.5 -59.5t-15 -73zM441 937q78 0 148.5 -27t124 -76t85 -116t31.5 -147q0 -81 -34 -147t-90.5 -112.5 t-128.5 -71.5t-148 -25t-144.5 29t-120.5 79t-82.5 116.5t-30.5 142.5q0 77 33 142t87.5 112.5t125 74t144.5 26.5z" />
<glyph unicode="&#x2dc;" horiz-adv-x="1214" d="M861 213q-49 0 -107 18.5t-118 50.5q-29 16 -56 30.5t-50.5 25.5t-43 17.5t-34.5 6.5q-12 0 -24 -5.5t-21 -19t-14.5 -36.5t-5.5 -59h-220q0 357 241 357q35 0 65.5 -5.5t58 -14t52.5 -19.5l50 -22q29 -14 58 -27.5t54.5 -25t46.5 -18.5t35 -7q8 0 14 3t9.5 12.5 t5.5 28.5t2 52h233q0 -169 -58.5 -256t-172.5 -87z" />
<glyph unicode="&#x301;" horiz-adv-x="1097" d="M489 1665l159 611l232 -91l-334 -546z" />
<glyph unicode="&#x306;" horiz-adv-x="1373" d="M1046 1693q0 -181 -89.5 -267t-271.5 -86q-179 0 -269.5 86t-90.5 267h226q0 -53 6.5 -89.5t21.5 -59t41 -32.5t65 -10q40 0 66 10t42 32.5t22.5 59t6.5 89.5h224z" />
<glyph unicode="&#x400;" horiz-adv-x="1349" d="M421 2346l329 155l216 -632l-172 -82zM158 0v1630h1116v-251h-718v-415h625v-245h-625v-474h727v-245h-1125z" />
<glyph unicode="&#x401;" horiz-adv-x="1382" d="M145 1992q0 44 16 82t44.5 66.5t66 44.5t81.5 16q43 0 82 -16t67.5 -44.5t45.5 -66.5t17 -82t-17 -82t-45.5 -66t-67.5 -44t-82 -16q-45 0 -83.5 16t-66 44.5t-43 66t-15.5 81.5zM855 1992q0 44 16.5 82t44.5 66.5t66 44.5t81 16t82 -16t67.5 -44.5t45.5 -66.5t17 -82 t-17 -82t-45.5 -66t-67.5 -44t-82 -16q-45 0 -83.5 16t-66 44.5t-43 66t-15.5 81.5zM191 0v1630h1116v-251h-718v-415h625v-245h-625v-474h727v-245h-1125z" />
<glyph unicode="&#x402;" horiz-adv-x="1669" d="M932 -38q11 -2 23 -4.5t29 -5.5q94 0 138 56.5t44 161.5q0 39 -1 77.5t-1 76.5v449q0 97 -42 154.5t-131 57.5q-33 0 -57 -2.5t-45 -10t-42 -21.5t-49 -37v-914h-399v1379h-417v251h1225v-251h-409v-281q8 20 35 44t69.5 45t100 35t125.5 14q95 0 171.5 -30.5 t130.5 -91.5t83 -153t29 -214v-556q0 -123 -28 -214t-80 -152t-126 -91t-167 -30q-72 0 -129 12t-103 38z" />
<glyph unicode="&#x403;" horiz-adv-x="1147" d="M634 1758l159 611l232 -91l-334 -546zM557 1380v-1380h-399v1630h947v-250h-548z" />
<glyph unicode="&#x404;" horiz-adv-x="1340" d="M106 821q0 194 45.5 349t135.5 263t224.5 166t312.5 58q83 0 161 -11.5t143.5 -30t115 -40.5t76.5 -43l-109 -280q-92 64 -177.5 91t-179.5 27q-89 0 -151 -30.5t-102.5 -85t-62 -130t-30.5 -165.5h554v-245h-557q28 -456 360 -456q189 0 345 113l107 -279 q-27 -25 -78.5 -46.5t-118 -38t-142.5 -26t-153 -9.5q-179 0 -313.5 61t-224.5 172t-135.5 267.5t-45.5 348.5z" />
<glyph unicode="&#x405;" horiz-adv-x="1375" d="M1308 464q0 -238 -153.5 -365t-451.5 -127q-128 0 -235.5 24.5t-187.5 54.5q-93 34 -170 79l84 277l27 -11q27 -12 70.5 -28.5t100 -36t115.5 -36t115.5 -27.5t102.5 -11q109 0 162 31t53 108q0 30 -6.5 56t-21.5 49t-40.5 42t-64.5 36l-414 175q-151 63 -227 173.5 t-76 266.5q0 80 25 145.5t68.5 117t102 89t126 62.5t140.5 37t145 12q82 0 156 -10t137 -25.5t113.5 -33.5t86 -33.5t54.5 -25.5l18 -10l-92 -259l-18 8q-17 8 -47 20.5t-71.5 27t-89.5 27t-101 20.5t-106 8q-45 0 -95.5 -4t-93 -19t-70.5 -44t-28 -79q0 -12 1.5 -26.5 t12.5 -31t35 -34.5t69 -36l372 -150q87 -35 155.5 -81t116 -105t72 -132.5t24.5 -164.5z" />
<glyph unicode="&#x406;" horiz-adv-x="900" d="M250 181v1267h-172v182h746v-182h-174v-1267h174v-181h-746v181h172z" />
<glyph unicode="&#x407;" horiz-adv-x="903" d="M-111 1953q0 44 16 82t44 66t65.5 44t81.5 16q43 0 82 -16t67.5 -44.5t45.5 -66.5t17 -81q0 -44 -17 -82t-45.5 -66.5t-67 -44.5t-81.5 -16q-46 0 -84 16.5t-65.5 44.5t-43 66t-15.5 82zM599 1953q0 44 16 82t44 66t66 44t81 16t82 -16t67.5 -44.5t45.5 -66.5t17 -81 q0 -44 -17 -82t-45.5 -66.5t-67 -44.5t-81.5 -16q-46 0 -84 16.5t-65.5 44.5t-43 66t-15.5 82zM251 181v1267h-172v182h746v-182h-175v-1267h175v-181h-746v181h172z" />
<glyph unicode="&#x408;" horiz-adv-x="913" d="M30 171q93 12 155.5 31.5t100.5 58.5t54 102t16 162v1105h400v-1107q0 -162 -37.5 -276.5t-115 -188t-195 -108.5t-276.5 -39z" />
<glyph unicode="&#x409;" horiz-adv-x="2566" d="M2094 551q0 85 -33.5 140t-89 86.5t-128.5 43.5t-151 12h-53v-582h82q89 0 158.5 14t117 48t72.5 92t25 146zM1241 0v1380h-534l3 -533q0 -114 -10.5 -220.5t-37.5 -200.5t-74.5 -172t-122 -134t-179 -87t-245.5 -31v370q94 0 148 34t81.5 91.5t35 132.5t7.5 158v39 l-5 802h1331v-560h55q180 0 327.5 -22.5t252.5 -81t162 -159t57 -257.5q0 -110 -26 -193.5t-74 -144.5t-117 -101.5t-154.5 -65t-186.5 -34.5t-213 -10h-102h-379z" />
<glyph unicode="&#x40a;" horiz-adv-x="2430" d="M1957 551q0 85 -33.5 140t-89 86.5t-128 43.5t-151.5 12h-51v-582h81q89 0 158.5 14t117 48t72 92t24.5 146zM1104 721h-547v-721h-399v1630h399v-664h547v664h400v-561h53q181 0 328.5 -22.5t252 -81t161.5 -159t57 -257.5q0 -165 -57.5 -271.5t-159.5 -168 t-243.5 -85.5t-309.5 -24h-482v721z" />
<glyph unicode="&#x40b;" horiz-adv-x="1671" d="M792 0h-402v1380h-384v250h1227v-250h-444v-315h334q94 0 169.5 -31.5t129 -93t82.5 -153t29 -212.5v-575h-378v440q0 36 1.5 75t1.5 79q0 52 -12.5 93t-34 69t-51.5 42.5t-64 14.5h-204v-813z" />
<glyph unicode="&#x40c;" horiz-adv-x="1537" d="M557 0h-399v1630h399v-695h70l459 695h407l-383 -559q-44 -63 -80 -107t-70.5 -72.5t-70.5 -44.5t-78 -24q41 -8 76 -21.5t69 -37.5t68.5 -62t75.5 -93l448 -609h-416l-513 691h-62v-691zM637 1751l214 634l331 -155l-373 -560z" />
<glyph unicode="&#x40d;" horiz-adv-x="1700" d="M478 2144l329 155l215 -632l-171 -82zM512 1630v-950l610 950h420v-1630h-356v1107l-673 -971v-136h-355v1630h354z" />
<glyph unicode="&#x40e;" horiz-adv-x="1289" d="M1007 2047q0 -181 -89.5 -267t-271.5 -86q-179 0 -269.5 86t-90.5 267h226q0 -53 6.5 -89.5t21.5 -59t41 -32.5t65 -10q40 0 66 10t42 32.5t22.5 59t6.5 89.5h224zM968 1630h404l-535 -1086v-173q0 -163 39 -359l-390 -13q-12 99 -20 193.5t-8 178.5v173l-526 1086h398 l317 -666z" />
<glyph unicode="&#x40f;" horiz-adv-x="1707" d="M158 1630h399v-1379h594v1379h399v-1630h-495v-366h-399v366h-498v1630z" />
<glyph unicode="&#x410;" d="M986 1630l545 -1630h-398l-113 358h-482l-113 -358h-398l537 1630h422zM589 541h397l-200 601z" />
<glyph unicode="&#x411;" horiz-adv-x="1677" d="M752 251h81q87 0 156 14.5t117 49t73.5 92.5t25.5 145q0 80 -29 134t-82 86.5t-127 46.5t-164 14h-51v-582zM1604 550q0 -165 -57 -271.5t-159 -168.5t-243.5 -86t-310.5 -24h-174h-307v1385h-195v245h1264v-250h-670v-311h53q181 0 327 -22.5t250 -81t161.5 -159 t60.5 -256.5z" />
<glyph unicode="&#x412;" horiz-adv-x="1516" d="M595 1630q151 0 257.5 -11t180.5 -29t121 -41.5t80 -47.5q72 -54 106 -131t34 -178q0 -64 -27 -121.5t-75 -102.5t-113 -74.5t-141 -37.5q112 -17 190.5 -48.5t127.5 -78.5t71 -109t22 -140q0 -128 -47 -219t-137 -149t-220.5 -85t-298.5 -27h-204h-364v1630h437z M669 251q91 0 159.5 4t114.5 26t69 68.5t23 131.5q0 71 -20 117t-62 72.5t-108 37t-159 10.5h-129v-467h112zM557 960h131q163 0 247.5 51.5t84.5 153.5q0 55 -15.5 96t-53 67t-99 39t-153.5 13h-142v-420z" />
<glyph unicode="&#x413;" horiz-adv-x="1120" d="M557 1380v-1380h-399v1630h947v-250h-548z" />
<glyph unicode="&#x414;" horiz-adv-x="1796" d="M1248 251v1129h-563v-416q0 -89 -2 -191.5t-13 -200.5t-34.5 -182.5t-67.5 -138.5h680zM102 251q-2 -4 -2 -3h1q2 0 16.5 17t35 55.5t44 101t43.5 154t33 214t13 281.5v560h1362v-1490h111v-629h-346v490h-983v-488h-428v737h100z" />
<glyph unicode="&#x415;" horiz-adv-x="1352" d="M158 0v1630h1116v-251h-718v-415h625v-245h-625v-474h727v-245h-1125z" />
<glyph unicode="&#x416;" horiz-adv-x="2377" d="M990 691h-67l-519 -691h-415l450 606q42 56 76.5 94.5t67.5 63t68 38.5t78 21q-43 10 -78 25.5t-69 43.5t-70 71t-81 108l-387 559h407l464 -695h75v695h398v-695h73l466 695h404l-384 -559q-45 -65 -81 -108.5t-70.5 -72t-70 -44t-77.5 -23.5q42 -7 77 -21t68 -39 t68 -63.5t77 -93.5l451 -606h-417l-519 691h-65v-691h-398v691z" />
<glyph unicode="&#x417;" horiz-adv-x="1585" d="M1130 833q40 -4 89 -28.5t92 -71.5t72 -117t29 -164q0 -146 -54.5 -239.5t-151 -147t-227.5 -73.5t-284 -20q-57 0 -119.5 9.5t-128 25.5t-132.5 37t-131 44l80 275q34 -14 84 -32t108.5 -34.5t122 -27.5t124.5 -11q156 0 238 56.5t82 179.5q0 52 -15.5 89.5t-50 61.5 t-90 35t-136.5 11q-41 0 -80.5 -1t-79.5 -1h-150v266h270q171 0 252.5 45.5t81.5 147.5q0 63 -14 105.5t-48.5 68.5t-93.5 37t-150 11q-96 0 -177.5 -13.5t-143 -31.5t-101.5 -35t-53 -24l-86 260q64 39 134 64.5t143.5 40.5t148 20.5t147.5 5.5q147 0 272.5 -20t217 -71.5 t143 -141.5t51.5 -230q0 -93 -30.5 -161t-74.5 -112.5t-93 -66t-87 -21.5z" />
<glyph unicode="&#x418;" horiz-adv-x="1700" d="M512 1630v-950l610 950h420v-1630h-356v1107l-673 -971v-136h-355v1630h354z" />
<glyph unicode="&#x419;" horiz-adv-x="1700" d="M1210 2030q0 -181 -89.5 -267t-271.5 -86q-179 0 -269.5 86t-90.5 267h226q0 -53 6.5 -89.5t21.5 -59t41 -32.5t65 -10q40 0 66 10t42 32.5t22.5 59t6.5 89.5h224zM512 1630v-950l610 950h420v-1630h-356v1107l-673 -971v-136h-355v1630h354z" />
<glyph unicode="&#x41a;" horiz-adv-x="1537" d="M557 0h-399v1630h399v-695h70l459 695h407l-383 -559q-44 -63 -80 -107t-70.5 -72.5t-70.5 -44.5t-78 -24q41 -8 76 -21.5t69 -37.5t68.5 -62t75.5 -93l448 -609h-416l-513 691h-62v-691z" />
<glyph unicode="&#x41b;" horiz-adv-x="1758" d="M1601 0h-399v1380h-531l4 -519q0 -116 -10.5 -224.5t-38 -204t-75 -175t-122 -136.5t-179 -88.5t-245.5 -31.5v369q73 0 124.5 17.5t84.5 59.5t48 111t15 173l-5 899h1329v-1630z" />
<glyph unicode="&#x41c;" horiz-adv-x="2046" d="M486 1084v-1084h-328v1630h460l396 -1189l413 1189h461v-1630h-328v1084l-350 -1084h-370z" />
<glyph unicode="&#x41d;" horiz-adv-x="1662" d="M1105 721h-548v-721h-399v1630h399v-664h548v664h399v-1630h-399v721z" />
<glyph unicode="&#x41e;" horiz-adv-x="1691" d="M1584 814q0 -197 -45 -353t-136.5 -264.5t-230.5 -166.5t-327 -58t-326.5 57.5t-230.5 166t-137 264t-45 351.5q0 199 45.5 356.5t137.5 266t231 166t325 57.5q187 0 326 -58t230.5 -166.5t137 -265t45.5 -353.5zM504 817q0 -113 14 -214.5t52 -178t104 -121.5t171 -45 q106 0 173 46.5t104.5 124t51 178.5t13.5 210q0 112 -14.5 212.5t-53 176.5t-105 120.5t-170.5 44.5q-105 0 -171 -45t-103.5 -121.5t-51.5 -176.5t-14 -211z" />
<glyph unicode="&#x41f;" horiz-adv-x="1707" d="M1550 0h-399v1380h-594v-1380h-399v1630h1392v-1630z" />
<glyph unicode="&#x420;" horiz-adv-x="1458" d="M1409 1081q0 -156 -58 -257t-163.5 -159t-252.5 -80.5t-325 -22.5h-53v-562h-399v1630h480q180 0 322 -25.5t240.5 -88.5t152 -169t56.5 -266zM609 796q83 0 156.5 12.5t128.5 44.5t87 86.5t32 138.5q0 87 -24.5 145.5t-72 93t-117 49t-160.5 14.5h-82v-584h52z" />
<glyph unicode="&#x421;" horiz-adv-x="1357" d="M503 809q0 -278 90.5 -414t270.5 -136q88 0 173 25.5t174 87.5l107 -280q-30 -26 -79.5 -48t-113 -38t-139.5 -25t-160 -9q-167 0 -300 56t-226 164t-143 266t-50 362q0 208 49.5 365t142.5 262t226 157.5t300 52.5q58 0 123 -5.5t130 -20t127.5 -38.5t115.5 -61 l-109 -280q-53 34 -99 57t-89.5 36.5t-85 19.5t-84.5 6q-90 0 -156 -31.5t-109.5 -99.5t-64.5 -174.5t-21 -256.5z" />
<glyph unicode="&#x422;" horiz-adv-x="1189" d="M798 1379v-1379h-399v1379h-417v251h1226v-251h-410z" />
<glyph unicode="&#x423;" horiz-adv-x="1288" d="M962 1630h404l-535 -1086v-173q0 -163 39 -359l-390 -13q-12 99 -20 193.5t-8 178.5v173l-526 1086h398l317 -666z" />
<glyph unicode="&#x424;" horiz-adv-x="2075" d="M1237 -90h-398v167q-135 0 -242 30t-188.5 83t-139 124t-94 153t-53 171t-16.5 178q0 180 61 317.5t163 231t234 141t275 47.5v168h398v-168q93 0 184 -21t172 -62.5t150 -103t119.5 -143.5t78.5 -184t28 -224q0 -89 -17 -178.5t-53.5 -171.5t-94 -153t-139 -123 t-188 -82t-240.5 -30v-167zM839 1266q-76 -2 -137.5 -19.5t-105 -66t-67.5 -136t-24 -229.5q0 -135 29 -222.5t76.5 -138.5t107 -71t121.5 -20v903zM1237 364q41 0 81 8.5t77.5 28.5t69.5 53.5t55.5 84t37 119t13.5 158.5q0 96 -11 166.5t-32 120t-51 80.5t-67 49t-80.5 25 t-92.5 9v-902z" />
<glyph unicode="&#x425;" horiz-adv-x="1418" d="M1015 1630h414l-497 -805l497 -825h-422l-298 497l-299 -497h-421l497 825l-497 805h414l306 -513z" />
<glyph unicode="&#x426;" horiz-adv-x="1848" d="M158 1630h399v-1379h571v1379h399v-1436h164v-560h-400v366h-1133v1630z" />
<glyph unicode="&#x427;" horiz-adv-x="1391" d="M856 532q-45 -63 -125 -101t-190 -38q-102 0 -182 31.5t-135 93t-84 153.5t-29 213v746h378v-774q0 -53 14 -92.5t36.5 -66t52 -40t59.5 -13.5q56 0 88.5 5.5t53 15.5t33.5 23.5t30 28.5v913h378v-1630h-378v532z" />
<glyph unicode="&#x428;" horiz-adv-x="2497" d="M1449 251h493v1379h397v-1630h-2181v1630h398v-1379h493v1379h400v-1379z" />
<glyph unicode="&#x429;" horiz-adv-x="2486" d="M1449 249h494v1381h379v-1543h106v-552h-342v465h-1928v1630h398v-1381h493v1381h400v-1381z" />
<glyph unicode="&#x42a;" horiz-adv-x="1639" d="M712 251h81q89 0 158.5 14.5t117 49t72.5 92.5t25 145q0 80 -29.5 134t-82.5 86.5t-127 46.5t-163 14h-52v-582zM712 1069h54q181 0 328.5 -22.5t252 -81t161.5 -159t57 -256.5q0 -165 -57 -271.5t-159.5 -168.5t-244 -86t-310.5 -24h-480v1385h-297v245h695v-561z" />
<glyph unicode="&#x42b;" horiz-adv-x="2266" d="M2108 0h-396v1626h396v-1626zM1353 550q0 -165 -57 -271.5t-159.5 -168.5t-244 -86t-310.5 -24h-480v1630h398v-561h54q181 0 327 -22.5t250 -81t161.5 -159t60.5 -256.5zM500 251h81q89 0 158.5 14.5t117 49t72.5 92.5t25 145q0 80 -29.5 134t-82.5 86.5t-127 46.5 t-164 14h-51v-582z" />
<glyph unicode="&#x42c;" horiz-adv-x="1426" d="M1353 550q0 -165 -57 -271.5t-159.5 -168.5t-244 -86t-310.5 -24h-480v1630h398v-561h54q181 0 327 -22.5t250 -81t161.5 -159t60.5 -256.5zM500 251h81q89 0 158.5 14.5t117 49t72.5 92.5t25 145q0 80 -29.5 134t-82.5 86.5t-127 46.5t-164 14h-51v-582z" />
<glyph unicode="&#x42d;" horiz-adv-x="1373" d="M1266 821q0 -192 -45 -348.5t-135 -267.5t-225 -172t-314 -61q-74 0 -148 9t-140 24.5t-119.5 37.5t-84.5 49l108 279q89 -62 173.5 -87.5t169.5 -25.5q163 0 255 110t107 347h-570v243h566q-8 91 -30 167t-62.5 130.5t-102.5 84.5t-150 30q-43 0 -84.5 -5.5t-84.5 -19 t-89.5 -36.5t-99.5 -57l-109 280q35 24 87.5 46.5t117 40t139 28t153.5 10.5q178 0 312 -58t224 -166t135.5 -263t45.5 -349z" />
<glyph unicode="&#x42e;" horiz-adv-x="2334" d="M755 948q7 89 27 176t57 166t93.5 146t136 116t183.5 77t238 28q146 0 257 -34t193 -93.5t137 -140t88.5 -174t47.5 -196t14 -204.5q0 -95 -12.5 -195t-44 -193.5t-84.5 -176.5t-135 -144.5t-196 -97.5t-266 -36q-119 0 -213.5 22t-167.5 59.5t-126.5 88.5t-91.5 108.5 t-62.5 119t-40 121.5t-23.5 114.5t-12 98.5h-195v-704h-399v1630h399v-682h198zM1829 813q0 69 -5.5 137t-19.5 130t-38 115t-62 92.5t-91 61.5t-124 22q-103 0 -169 -45t-104.5 -121.5t-53.5 -178t-15 -214.5q0 -67 5.5 -134t20 -128.5t39 -114.5t62.5 -92.5t91 -62 t124 -22.5q78 0 134 26.5t93.5 70.5t60 101t34 119t15 123.5t3.5 114.5z" />
<glyph unicode="&#x42f;" d="M622 811q-106 7 -195.5 29.5t-154 68.5t-101 120t-36.5 184q0 67 15.5 124t52 103.5t98 82t153.5 59.5t217.5 36t291.5 12h436v-1630h-398v692h-115q-87 0 -155.5 -12.5t-116 -43t-72.5 -83t-25 -133.5v-420h-395v393q0 109 37 184t103.5 123t158.5 74t201 37zM1001 932 v448h-78q-108 0 -182 -9t-120 -32.5t-66 -65.5t-20 -108q0 -71 25 -116t78.5 -71t135.5 -36t196 -10h31z" />
<glyph unicode="&#x430;" horiz-adv-x="1333" d="M646 985q-109 0 -200.5 -23t-184.5 -66l-88 223q93 58 215.5 87.5t270.5 29.5q135 0 231.5 -34.5t158.5 -102.5t91.5 -168t29.5 -230v-701h-293l-51 152q-28 -48 -59 -81.5t-68 -55.5t-81.5 -32t-99.5 -10q-99 0 -177 26t-132.5 77t-83.5 126t-29 173q0 99 38.5 170.5 t112.5 118t182 69t248 22.5q29 0 58.5 -2t59.5 -7q0 40 -3.5 82t-18 77t-44.5 57.5t-83 22.5zM617 227q106 0 178 97v230q-33 2 -57 4t-28 2q-72 0 -118 -10.5t-72 -30t-36 -48t-10 -64.5q0 -83 36.5 -131.5t106.5 -48.5z" />
<glyph unicode="&#x431;" horiz-adv-x="1298" d="M451 603q0 -203 52 -295.5t146 -92.5q197 0 197 394q0 117 -9.5 193.5t-29 121.5t-50.5 63t-74 18q-112 0 -237 -116q3 -73 4 -143.5t1 -142.5zM650 -28q-63 0 -130.5 10.5t-131.5 40t-121.5 81.5t-100.5 134.5t-68.5 199.5t-25.5 277q0 163 14.5 289t40.5 220.5 t61.5 161t77.5 111t88 70t93 38t93 16t88 3.5q10 0 28 -0.5t37 -1t35 -1t22 -0.5q37 0 65 4t47 14.5t28 29.5t9 47h298q0 -70 -14 -118t-39.5 -80t-60 -49t-76 -25t-88 -9.5t-94.5 -1.5h-35q-45 0 -90.5 -2t-87 -11.5t-77 -29.5t-61.5 -56t-41 -90.5t-15 -132.5 q31 33 71.5 58.5t87 42.5t97 25.5t101.5 8.5q42 0 92 -10.5t100 -37t96.5 -72t82.5 -116.5t57.5 -169.5t21.5 -230.5q0 -141 -30 -243.5t-78.5 -173.5t-110.5 -114.5t-126 -67t-124.5 -31.5t-105.5 -8z" />
<glyph unicode="&#x432;" horiz-adv-x="1270" d="M616 256q93 0 134.5 25.5t41.5 87.5q0 29 -9 51t-37 36.5t-79.5 22t-136.5 9.5v-232h86zM530 722q84 1 135.5 6.5t80 18t38.5 33t10 51.5q0 64 -51 87.5t-151 23.5h-62v-220zM162 1198h502q104 0 192.5 -21t152.5 -63t100 -106.5t36 -151.5q0 -54 -14 -94.5t-35.5 -69.5 t-48.5 -47.5t-52.5 -29.5t-47.5 -15t-34 -4q53 -8 96 -32.5t74 -62t47.5 -84t16.5 -97.5q0 -80 -37.5 -140t-104 -100t-158 -60t-199.5 -20h-486v1198z" />
<glyph unicode="&#x433;" horiz-adv-x="1025" d="M162 0v1198h853v-250h-476v-948h-377z" />
<glyph unicode="&#x434;" horiz-adv-x="1511" d="M29 253q52 13 95 46.5t75 81t53.5 107t30.5 124.5q-11 -11 -12 -25q24 154 48.5 305.5t48.5 305.5h936v-944h182v-524h-324v270h-811v-270h-322v523zM926 948h-258l-41 -377q-8 -68 -20.5 -119.5t-27.5 -90t-32 -65t-34 -44.5h413v696z" />
<glyph unicode="&#x435;" horiz-adv-x="1253" d="M1111 69q-99 -49 -197 -72.5t-207 -23.5q-143 0 -260 39t-200 114t-129 184.5t-46 249.5q0 163 39.5 289.5t116 212t188.5 130t258 44.5q121 0 213.5 -41t155.5 -114t95.5 -174t32.5 -221v-86.5t1 -87.5h-711q2 -63 21.5 -115.5t55 -90t86 -58.5t113.5 -21q90 0 164.5 23 t140.5 71zM866 694q0 149 -48.5 218t-152.5 73q-54 -4 -93 -28t-64 -62.5t-36.5 -89.5t-11.5 -108h406v-3z" />
<glyph unicode="&#x436;" horiz-adv-x="1917" d="M784 0v470h-80l-274 -470h-417l302 436q43 62 103 105t126 63q-63 6 -123.5 49.5t-109.5 112.5l-307 432h426l288 -443h66v443h346v-442h69l288 442h426l-307 -432q-50 -69 -110.5 -112.5t-122.5 -49.5q31 -10 63 -26t62 -38t56.5 -48t47.5 -56l303 -435h-416l-277 469 h-82v-470h-346z" />
<glyph unicode="&#x437;" horiz-adv-x="1218" d="M345 734q98 0 168 3t118 9t76.5 16.5t44 26t20 35.5t4.5 47q0 61 -49 85.5t-161 24.5q-61 0 -117.5 -16t-100 -36t-69.5 -37t-26 -19l-69 243q109 62 222 90.5t242 28.5q109 0 199.5 -21t154.5 -63.5t99.5 -106.5t35.5 -150q0 -62 -16.5 -107t-41.5 -76.5t-54.5 -51 t-55.5 -30.5t-45 -14.5t-23 -3.5l-1 1h1h-1l18 -3q17 -3 44 -13t58 -29.5t58 -52t45 -80.5t18 -115q0 -80 -38 -144t-106.5 -109t-162 -69t-204.5 -24q-127 0 -235.5 31t-210.5 99l71 241q28 -21 63 -42t76.5 -38t89.5 -27.5t102 -10.5q97 0 142.5 33.5t45.5 97.5 q0 42 -15 69.5t-61 43t-130.5 21.5t-222.5 6v237z" />
<glyph unicode="&#x438;" horiz-adv-x="1555" d="M1403 0h-369v720l-505 -572v-148h-367v1199h367v-600l512 600h362v-1199z" />
<glyph unicode="&#x439;" horiz-adv-x="1555" d="M1140 1632q0 -181 -89.5 -267t-271.5 -86q-179 0 -269.5 86t-90.5 267h226q0 -53 6.5 -89.5t21.5 -59t41 -32.5t65 -10q40 0 66 10t42 32.5t22.5 59t6.5 89.5h224zM1403 0h-369v720l-505 -572v-148h-367v1199h367v-600l512 600h362v-1199z" />
<glyph unicode="&#x43a;" horiz-adv-x="1362" d="M506 1198v-442h90l338 442h425l-343 -434q-23 -29 -56.5 -57t-70.5 -50.5t-74.5 -36.5t-68.5 -16q29 -8 61.5 -18t67.5 -30t74 -53.5t81 -88.5l321 -414h-417l-324 470h-104v-470h-344v1198h344z" />
<glyph unicode="&#x43b;" horiz-adv-x="1542" d="M1391 0h-377v948h-293l-38 -376q-14 -126 -51.5 -231t-114.5 -180t-201.5 -117t-310.5 -42v326q64 0 120 9t99 36t71 75.5t37 128.5l67 621h992v-1198z" />
<glyph unicode="&#x43c;" horiz-adv-x="1852" d="M1701 1198v-1198h-334v809l-274 -809h-336l-261 809v-809h-334v1198h501l268 -786l269 786h501z" />
<glyph unicode="&#x43d;" horiz-adv-x="1513" d="M535 744h445v454h381v-1198h-377v493h-445v-493h-377v1198h373v-454z" />
<glyph unicode="&#x43e;" horiz-adv-x="1329" d="M665 229q53 0 93 20.5t67 65.5t41 116.5t14 173.5q0 101 -14 173.5t-41 118.5t-67 67.5t-93 21.5t-93 -21.5t-66.5 -67.5t-40 -118t-13.5 -174q0 -42 2 -86t9.5 -85.5t21.5 -78t37.5 -64.5t58.5 -44.5t84 -17.5zM1256 602q0 -152 -39.5 -269t-115.5 -196.5t-185.5 -120.5 t-250.5 -41q-140 0 -250 41t-186 120.5t-116 196.5t-40 269q0 154 40.5 272.5t116.5 199t186 122t248 41.5t247.5 -41.5t186 -122t117.5 -199t41 -272.5z" />
<glyph unicode="&#x43f;" horiz-adv-x="1513" d="M1361 0h-377v948h-445v-948h-377v1198h1199v-1198z" />
<glyph unicode="&#x440;" horiz-adv-x="1389" d="M766 985q-64 0 -119.5 -25t-106.5 -78v-543q76 -60 131.5 -86t100.5 -26q36 0 62.5 18t45 48t29.5 68t17 78.5t8 80t2 71.5q0 82 -4 154t-20.5 125.5t-51 84t-94.5 30.5zM814 -27q-85 0 -152.5 36t-121.5 111v-531h-378v1609h288l71 -152q27 94 104.5 142t214.5 48 q131 0 222 -47.5t147.5 -133.5t82 -206t25.5 -264q0 -155 -37.5 -270t-104.5 -191t-159.5 -113.5t-201.5 -37.5z" />
<glyph unicode="&#x441;" horiz-adv-x="1138" d="M690 -27q-126 0 -221 29t-163.5 77.5t-113.5 112t-72 132t-37.5 137.5t-10.5 129q0 138 42.5 256t122.5 205t195 136t261 49q80 0 141.5 -9.5t108 -24.5t79 -33t54.5 -34l-68 -242q-22 15 -50 31t-62.5 29.5t-77 22.5t-92.5 9q-61 0 -111.5 -21t-86.5 -66.5t-55.5 -117 t-19.5 -173.5q0 -191 75 -285.5t232 -94.5q72 0 137 26.5t110 61.5l68 -241q-24 -18 -59 -36t-82 -32.5t-107.5 -23.5t-136.5 -9z" />
<glyph unicode="&#x442;" horiz-adv-x="1135" d="M1126 948h-367v-948h-378v948h-368v250h1113v-250z" />
<glyph unicode="&#x443;" horiz-adv-x="1230" d="M0 1198h388l276 -799l188 799h382l-405 -1231q-36 -110 -85 -193.5t-118.5 -140.5t-163.5 -86.5t-220 -30.5l-106 256q100 7 162.5 24.5t101.5 50t61 81.5t40 118z" />
<glyph unicode="&#x444;" horiz-adv-x="1662" d="M657 1271h348v-104q9 0 18 2t18 2q109 0 208.5 -30.5t175 -98t120 -175.5t44.5 -262q0 -151 -45.5 -258t-120.5 -175.5t-172 -100t-201 -31.5q-12 0 -23 1.5t-22 2.5v-125h-348v125q-9 0 -17 -1.5t-17 -2.5q-107 0 -206.5 30.5t-176 98t-122.5 175t-46 260.5 q0 151 43 258.5t116.5 176t170.5 100.5t206 32q13 0 24.5 -1.5t24.5 -2.5v104zM657 917q-41 0 -78.5 -8.5t-66 -40t-45 -93.5t-16.5 -169q0 -105 16.5 -167t45 -94.5t66 -41.5t78.5 -9v623zM1005 294q43 0 80.5 10t65.5 43t44 94.5t16 164.5q0 106 -17 167.5t-45.5 93.5 t-65.5 41t-78 9v-623z" />
<glyph unicode="&#x445;" horiz-adv-x="1222" d="M431 0h-417l407 604l-416 594h426l188 -324l181 324h419l-407 -594l401 -604h-413l-186 344z" />
<glyph unicode="&#x446;" horiz-adv-x="1507" d="M162 1198h377v-946h451v946h377v-1118h108v-548h-341v468h-972v1198z" />
<glyph unicode="&#x447;" horiz-adv-x="1518" d="M836 551v-551h372v1198h-379v-481q-34 -43 -74.5 -68t-97.5 -25q-45 0 -74 15.5t-46 43.5t-23.5 67t-6.5 85v363h-373v-334q0 -244 108 -367.5t335 -123.5q51 0 139 43t120 135z" />
<glyph unicode="&#x448;" horiz-adv-x="1972" d="M162 1198h377v-947h262v947h378v-947h264v947h377v-1198h-1658v1198z" />
<glyph unicode="&#x449;" horiz-adv-x="2370" d="M2218 -391h-355v391h-1701v1198h376v-947h365v947h378v-947h366v947h378v-950h193v-639z" />
<glyph unicode="&#x44a;" horiz-adv-x="1489" d="M309 0v948h-306v250h686v-295q40 0 81 0.5t83 0.5q114 0 219 -18.5t186 -67.5t129 -133t48 -215q0 -116 -23.5 -196t-68 -132t-107.5 -80.5t-143 -42t-175 -16t-202 -3.5h-407zM1058 444q0 77 -18.5 121t-48.5 66t-67 27.5t-74 5.5h-161v-428h55q26 0 52 -1t52 -1 q41 0 79 6.5t67 28t46.5 63t17.5 112.5z" />
<glyph unicode="&#x44b;" horiz-adv-x="2110" d="M1580 0v1198h379v-1198h-379zM909 444q0 80 -20 124.5t-51.5 66.5t-70.5 26.5t-77 4.5q-8 0 -32.5 -0.5t-50.5 -0.5h-67v-427h5h33t48 -0.5t47 -1t30 -0.5q36 0 73 6t66.5 27t48 62.5t18.5 112.5zM162 0v1194h378v-291q93 0 184.5 -3t174.5 -17t153.5 -43t122.5 -80 t81.5 -128t29.5 -188q0 -110 -23.5 -186t-68 -125t-107.5 -75.5t-143 -39t-175 -15t-202 -3.5h-405z" />
<glyph unicode="&#x44c;" horiz-adv-x="1360" d="M909 444q0 80 -20 124.5t-51.5 66.5t-70.5 26.5t-77 4.5q-8 0 -32.5 -0.5t-50.5 -0.5h-67v-427h5h33t48 -0.5t47 -1t30 -0.5q36 0 73 6t66.5 27t48 62.5t18.5 112.5zM162 0v1194h378v-291q93 0 184.5 -3t174.5 -17t153.5 -43t122.5 -80t81.5 -128t29.5 -188 q0 -110 -23.5 -186t-68 -125t-107.5 -75.5t-143 -39t-175 -15t-202 -3.5h-405z" />
<glyph unicode="&#x44d;" horiz-adv-x="1181" d="M489 -28q-53 0 -98.5 5.5t-90.5 17.5t-92 31.5t-102 48.5l68 242q1 0 20.5 -14t52.5 -31t77.5 -31t96.5 -14q132 0 205 65.5t94 199.5h-315v214h319q-8 83 -29.5 137t-55.5 85t-81 43t-106 12q-40 0 -85 -10t-84.5 -24.5t-69.5 -30t-40 -25.5l-68 242q67 34 120.5 54.5 t101.5 30.5t94 13t98 3q148 0 258.5 -51.5t184 -139.5t110 -205.5t36.5 -249.5q0 -58 -10 -126t-36 -137t-70.5 -133t-113.5 -113.5t-165 -79t-224 -29.5z" />
<glyph unicode="&#x44e;" horiz-adv-x="1927" d="M1263 224q109 0 162 90.5t53 289.5t-53.5 289t-160.5 90q-110 0 -162.5 -90t-52.5 -289q0 -39 2 -82.5t9 -86t21 -80.5t37.5 -67.5t59 -46.5t85.5 -17zM1854 600q0 -149 -38.5 -265.5t-113.5 -197t-185.5 -123t-254.5 -42.5q-129 0 -232 35t-177.5 102t-119 164.5 t-57.5 222.5h-137v-496h-377v1198h373v-451h145q18 118 65 209t121.5 153.5t174 94.5t222.5 32q139 0 249 -42t186 -123t116 -199.5t40 -271.5z" />
<glyph unicode="&#x44f;" horiz-adv-x="1418" d="M1256 1195v-1195h-379v371h-74.5t-75.5 -1l-180 -370h-440l264 417q-115 41 -177.5 128t-62.5 239q0 124 37.5 204t122.5 126t222.5 63.5t338.5 17.5h404zM508 784q0 -59 17.5 -93.5t49 -52.5t75 -23.5t95.5 -5.5q31 0 64 1t68 1v342h-121q-31 0 -73.5 -2t-81.5 -17.5 t-66 -50t-27 -99.5z" />
<glyph unicode="&#x450;" horiz-adv-x="1253" d="M171 1905l329 155l216 -632l-172 -82zM1111 69q-99 -49 -197 -72.5t-207 -23.5q-143 0 -260 39t-200 114t-129 184.5t-46 249.5q0 163 39.5 289.5t116 212t188.5 130t258 44.5q121 0 213.5 -41t155.5 -114t95.5 -174t32.5 -221v-86.5t1 -87.5h-711q2 -63 21.5 -115.5 t55 -90t86 -58.5t113.5 -21q91 0 164.5 23t140.5 71zM866 694q0 149 -48.5 218t-152.5 73q-54 -4 -93 -28t-64 -62.5t-36.5 -89.5t-11.5 -108h406v-3z" />
<glyph unicode="&#x451;" horiz-adv-x="1262" d="M1111 69q-99 -49 -197 -72.5t-207 -23.5q-143 0 -260 39t-200 114t-129 184.5t-46 249.5q0 163 39.5 289.5t116 212t188.5 130t258 44.5q121 0 213.5 -41t155.5 -114t95.5 -174t32.5 -221v-86.5t1 -87.5h-711q2 -63 21.5 -115.5t55 -90t86 -58.5t113.5 -21q90 0 164.5 23 t140.5 71zM866 694q0 149 -48.5 218t-152.5 73q-54 -4 -93 -28t-64 -62.5t-36.5 -89.5t-11.5 -108h406v-3zM64 1512q0 44 16 82t44 66t66 44t82 16q43 0 81.5 -16t67 -44t45.5 -66t17 -82t-17 -82t-45.5 -66.5t-67 -44.5t-81.5 -16q-45 0 -83.5 16.5t-66 44.5t-43 66 t-15.5 82zM774 1512q0 44 16 82t44.5 66t66 44t81.5 16q43 0 81.5 -16t67 -44t45.5 -66t17 -82t-17 -82t-45.5 -66.5t-67 -44.5t-81.5 -16q-45 0 -83.5 16.5t-66 44.5t-43 66t-15.5 82z" />
<glyph unicode="&#x452;" horiz-adv-x="1413" d="M534 1630h490v-179h-490v-352q47 64 130 100.5t186 36.5q112 0 193 -38.5t133.5 -104.5t77.5 -155t25 -191v-421q0 -167 -13.5 -292t-41.5 -214t-69 -146.5t-97 -90.5t-125.5 -46t-153.5 -13h-32l-60 297q63 0 104.5 17.5t66 70t34 150t9.5 256.5v458q0 53 -13.5 92.5 t-36 66t-52 40t-60.5 13.5q-52 0 -90.5 -11.5t-64 -25t-38.5 -24.5l-12 -11v-913h-377v1451h-160v179h160v102l377 64v-166z" />
<glyph unicode="&#x453;" horiz-adv-x="1036" d="M162 0v1198h853v-250h-476v-948h-377zM390 1427l214 634l331 -156l-373 -559z" />
<glyph unicode="&#x454;" horiz-adv-x="1181" d="M692 -28q53 0 98.5 5.5t90.5 17.5t92 31.5t102 48.5l-68 242q-1 0 -20.5 -14t-52.5 -31t-77.5 -31t-96.5 -14q-132 0 -205 65.5t-94 199.5h315v214h-319q8 83 29.5 137t55.5 85t81 43t106 12q40 0 85 -10t84.5 -24.5t69.5 -30t40 -25.5l68 242q-67 34 -120.5 54.5 t-101.5 30.5t-94 13t-98 3q-148 0 -258.5 -51.5t-184 -139.5t-110 -205.5t-36.5 -249.5q0 -58 10 -126t36 -137t70.5 -133t113.5 -113.5t165 -79t224 -29.5z" />
<glyph unicode="&#x455;" horiz-adv-x="1175" d="M374 540q-52 21 -99 46t-83 64t-57.5 96.5t-21.5 144.5q0 78 33.5 142t96.5 109t154 69.5t207 24.5q56 0 111 -7t105.5 -17.5t93 -23t73.5 -22.5t48 -16.5t16 -5.5l-68 -239v-1q-3 0 -21.5 6t-48.5 15t-68 19.5t-78 19.5t-80 15t-74 6q-47 0 -77.5 -6.5t-48.5 -19 t-25 -32t-7 -45.5q0 -17 4 -29t13.5 -21.5t26 -17.5t41.5 -18l211 -81q79 -30 138.5 -66t100 -79t61 -94.5t20.5 -114.5q0 -113 -43.5 -187.5t-113.5 -119t-158 -63t-178 -18.5q-63 0 -122 8t-111 20t-95 26t-73.5 25.5t-47 19t-14.5 6.5l68 244q2 0 20.5 -6.5t48.5 -17.5 t69 -23t81.5 -23t85 -18t79.5 -7q49 0 79 7t46 22.5t21.5 39.5t5.5 57q0 21 -25 43.5t-78 44.5z" />
<glyph unicode="&#x456;" horiz-adv-x="778" d="M228 0v1198h377v-1198h-377zM208 1674q0 44 16 82t44.5 66.5t66 44.5t81.5 16q43 0 81 -16t67 -44t46 -66.5t17 -82.5q0 -45 -17 -83t-46.5 -66t-67.5 -43.5t-80 -15.5q-45 0 -83.5 16t-66 44t-43 66t-15.5 82z" />
<glyph unicode="&#x457;" horiz-adv-x="756" d="M-185 1483q0 45 16 83t44.5 66t66 44t81.5 16q43 0 81.5 -16t67 -44t45.5 -66t17 -83q0 -44 -17 -82t-45.5 -66t-67 -44t-81.5 -16q-45 0 -83.5 16.5t-66 44.5t-43 66t-15.5 81zM525 1483q0 45 16 83t44.5 66t66 44t81.5 16q43 0 81.5 -16t67 -44t45.5 -66t17 -83 q0 -44 -17 -82t-45.5 -66t-67 -44t-81.5 -16q-45 0 -83 16.5t-66 44.5t-43.5 66t-15.5 81zM215 0v1198h379v-1198h-379z" />
<glyph unicode="&#x458;" horiz-adv-x="773" d="M191 1671q0 46 15.5 84t42.5 66t64 43.5t80 15.5t80 -16t64.5 -44t43.5 -66t16 -83q0 -47 -16 -85.5t-44 -66t-65 -42.5t-79 -15q-47 0 -84 17t-63.5 45.5t-40.5 66.5t-14 80zM-12 -102q48 28 88 56t69 64t45 84.5t16 116.5v979h379v-984q0 -111 -38.5 -205.5 t-104 -168.5t-151.5 -124.5t-182 -72.5z" />
<glyph unicode="&#x459;" horiz-adv-x="2239" d="M1417 1198v-295q89 0 179 -3t173.5 -17t155.5 -42.5t125.5 -79.5t84.5 -128.5t31 -188.5q0 -112 -26.5 -188t-74.5 -125.5t-114 -76t-145.5 -38.5t-169 -14t-183.5 -2h-413v948h-274l-58 -376q-13 -83 -33.5 -157.5t-54.5 -138t-83.5 -114.5t-120 -86.5t-164 -54.5 t-215.5 -19v326q62 0 113.5 9.5t90.5 36.5t65 76t36 127l79 621h996zM1788 444q0 76 -18 120t-47.5 66t-66.5 27.5t-74 5.5q-42 0 -82.5 -0.5t-81.5 -0.5v-426h59q23 0 47 -1.5t50 -1.5q40 0 78.5 6.5t68.5 28.5t48.5 63.5t18.5 112.5z" />
<glyph unicode="&#x45a;" horiz-adv-x="2182" d="M1731 444q0 76 -18.5 120t-48 66t-66.5 27.5t-74 5.5q-41 0 -80.5 -0.5t-78.5 -0.5v-426q38 0 80 -1t87 0q37 0 72.5 7t63.5 28.5t45.5 63t17.5 110.5zM535 744h449v454h381v-295q100 0 193.5 -1.5t176.5 -13.5t151.5 -39t117.5 -78t76.5 -130.5t27.5 -196.5 q0 -105 -28 -178.5t-78 -123t-117.5 -78t-146.5 -43t-166 -18.5t-175 -4q-36 0 -72.5 0.5t-71.5 0.5h-269v493h-446v-493h-376v1198h373v-454z" />
<glyph unicode="&#x45b;" horiz-adv-x="1627" d="M748 1559h498v-206h-498v-254q47 64 129.5 100.5t185.5 36.5q102 0 182.5 -31t135.5 -92.5t84 -153t29 -212.5v-747h-379v773q0 51 -13.5 90.5t-36 66.5t-51.5 41t-61 14q-51 0 -90 -11.5t-64.5 -25t-38.5 -24.5l-12 -11v-913h-378v1353h-197v206h197v173l378 64v-237z " />
<glyph unicode="&#x45c;" horiz-adv-x="1362" d="M506 1198v-442h90l338 442h425l-343 -434q-24 -30 -57.5 -58t-70 -50t-74 -36t-68.5 -16q29 -8 61.5 -18t67.5 -30t74 -53.5t81 -88.5l321 -414h-417l-324 470h-104v-470h-344v1198h344zM593 1328l214 634l331 -155l-373 -560z" />
<glyph unicode="&#x45d;" horiz-adv-x="1555" d="M425 1769l329 155l215 -632l-171 -82zM1403 0h-369v720l-505 -572v-148h-367v1199h367v-600l512 600h362v-1199z" />
<glyph unicode="&#x45e;" horiz-adv-x="1230" d="M0 1198h388l276 -799l188 799h382l-405 -1231q-39 -117 -92 -202t-125 -140t-163.5 -81.5t-206.5 -27.5l-106 256q98 7 160.5 24.5t102 50t62 81.5t40.5 118zM977 1701q0 -181 -90 -264t-270 -83q-179 0 -269.5 82.5t-90.5 264.5h226q0 -53 6 -90.5t21.5 -61.5 t41.5 -35.5t65 -11.5t65.5 11.5t42 35.5t22 61.5t6.5 90.5h224z" />
<glyph unicode="&#x45f;" horiz-adv-x="1512" d="M162 1198h377v-947h444v947h377v-1198h-402v-366h-400v366h-396v1198z" />
<glyph unicode="&#x1ef2;" horiz-adv-x="1268" d="M942 1630h404l-526 -1091v-539h-376v539l-519 1091h397l309 -673zM370 2408l329 155l215 -632l-171 -82z" />
<glyph unicode="&#x1ef3;" horiz-adv-x="1230" d="M0 1198h388l276 -799l188 799h382l-405 -1231q-36 -110 -85 -193.5t-118.5 -140.5t-163.5 -86.5t-220 -30.5l-106 256q100 7 162.5 24.5t101.5 50t61 81.5t40 118zM343 1969l329 155l215 -632l-171 -82z" />
<glyph unicode="&#x2013;" horiz-adv-x="1034" d="M141 877h744v-282h-744v282z" />
<glyph unicode="&#x2014;" horiz-adv-x="2193" d="M164 877h1857v-282h-1857v282z" />
<glyph unicode="&#x2018;" horiz-adv-x="708" d="M571 861h-447v385q0 96 34.5 159.5t89 105.5t122 67.5t133.5 45.5l67 -120q-50 -19 -85.5 -38.5t-58 -42.5t-33 -52.5t-10.5 -69.5h188v-440z" />
<glyph unicode="&#x2019;" horiz-adv-x="559" d="M56 1630h447v-386q0 -95 -34 -158t-88 -105t-121.5 -68t-135.5 -46l-67 119q50 18 85.5 37t58 42.5t33 53.5t10.5 70h-188v441z" />
<glyph unicode="&#x201a;" horiz-adv-x="696" d="M134 440h448v-384q0 -96 -34.5 -160t-89.5 -105.5t-122.5 -67t-133.5 -45.5l-67 119q50 18 86 37t58.5 42.5t33 53.5t10.5 70h-189v440z" />
<glyph unicode="&#x201c;" horiz-adv-x="1232" d="M1100 864h-447v385q0 96 34.5 159.5t89 105.5t122 67.5t133.5 45.5l67 -120q-50 -19 -85.5 -38.5t-58 -42.5t-33 -52.5t-10.5 -69.5h188v-440zM546 864h-448v385q0 96 34.5 159.5t89.5 105.5t122.5 67.5t133.5 45.5l66 -120q-50 -19 -85.5 -38.5t-58 -42.5t-33 -52.5 t-10.5 -69.5h189v-440z" />
<glyph unicode="&#x201d;" horiz-adv-x="1052" d="M56 1630h447v-386q0 -95 -34 -158t-88 -105t-121.5 -68t-135.5 -46l-67 119q50 18 85.5 37t58 42.5t33 53.5t10.5 70h-188v441zM610 1630h448v-386q0 -95 -34 -158t-88 -105t-122 -68t-136 -46l-66 119q50 18 85.5 37t58 42.5t33 53.5t10.5 70h-189v441z" />
<glyph unicode="&#x201e;" horiz-adv-x="1177" d="M115 440h447v-384q0 -96 -34.5 -160t-89 -105.5t-122 -67t-133.5 -45.5l-67 119q50 18 85.5 37t58 42.5t33 53.5t10.5 70h-188v440zM670 440h447v-384q0 -96 -34.5 -160t-89.5 -105.5t-122.5 -67t-133.5 -45.5l-66 119q50 18 85.5 37t58 42.5t33 53.5t10.5 70h-188v440z " />
<glyph unicode="&#x2020;" horiz-adv-x="1078" d="M388 960h-276v201h275v307h313v-307h266v-201h-268v-960h-310v960z" />
<glyph unicode="&#x2021;" horiz-adv-x="1078" d="M388 307h-275v201h275v452h-276v201h276v307h312v-307h266v-201h-266v-452h267v-201h-267v-307h-312v307z" />
<glyph unicode="&#x2022;" horiz-adv-x="1241" d="M627 324q-77 0 -151 27t-132 76.5t-94 119t-36 154.5q0 76 33 145t89 121t129 82.5t153 30.5q77 0 151.5 -28t133 -78t94.5 -119.5t36 -153.5q0 -82 -35 -151t-92 -119.5t-130 -78.5t-149 -28z" />
<glyph unicode="&#x2026;" horiz-adv-x="1740" d="M1243 191q-1 5 -1 8.5v8.5q0 48 16.5 86t45.5 64t68 40t83 14q47 0 84.5 -16.5t64 -45t40.5 -66.5t14 -81q0 -48 -17.5 -86t-47 -64.5t-68.5 -40t-83 -13.5t-80.5 15t-63 41t-41 61t-14.5 75zM659 191q0 4 -0.5 7.5t-0.5 7.5q0 48 17 86.5t46 65t67.5 40.5t82.5 14 q47 0 84.5 -16.5t64 -45t40.5 -66.5t14 -81q0 -48 -17 -86t-46.5 -64.5t-69 -40t-83.5 -13.5t-80.5 15t-62.5 41t-41 61t-15 75zM98 191q-1 5 -1 9v8q0 48 16.5 86t45 64t67.5 40t83 14q47 0 84.5 -16.5t64 -44.5t41 -65.5t14.5 -80.5q0 -49 -17.5 -87t-47 -64.5 t-68.5 -40.5t-83 -14t-80.5 15t-63 41t-41 61t-14.5 75z" />
<glyph unicode="&#x2030;" horiz-adv-x="1763" />
<glyph unicode="&#x2039;" horiz-adv-x="1276" d="M142 740l890 543v-320l-572 -348l573 -346v-321l-891 543v249z" />
<glyph unicode="&#x203a;" horiz-adv-x="1209" d="M210 -52v321l563 346l-564 348v320l891 -543v-249z" />
<glyph unicode="&#x20ac;" horiz-adv-x="1340" d="M885 772v-201h-339q33 -311 270 -311q62 0 144.5 28t167.5 87l75 -272q-62 -60 -166 -99t-245 -43q-114 0 -215.5 32t-179.5 104.5t-127.5 189t-60.5 284.5h-138v201h134q1 42 1.5 70.5t3.5 47.5h-160v201h189q30 133 86 241t139.5 184t195 117t251.5 41q69 0 128.5 -12 t108.5 -30.5t86.5 -39.5t63.5 -39l-89 -265q-31 25 -72.5 43.5t-85 30.5t-85.5 18t-74 6q-53 0 -99 -21.5t-84 -60t-68.5 -93t-52.5 -120.5h365v-201h-408q-4 -37 -6 -118h346z" />
<glyph unicode="&#x2116;" horiz-adv-x="3030" d="M1131 0l-620 1076v-1076h-353v1630h420l609 -1060v1060h352v-1630h-408zM2365 229q53 0 93 20.5t67 65.5t41 116.5t14 173.5q0 101 -14 173.5t-41 118.5t-67 67.5t-93 21.5t-93 -21.5t-66.5 -67.5t-40 -118t-13.5 -174q0 -42 2 -86t9.5 -85.5t21.5 -78t37.5 -64.5 t58.5 -44.5t84 -17.5zM2956 602q0 -152 -39.5 -269t-115.5 -196.5t-185.5 -120.5t-250.5 -41q-140 0 -250 41t-186 120.5t-116 196.5t-40 269q0 154 40.5 272.5t116.5 199t186 122t248 41.5t247.5 -41.5t186 -122t117.5 -199t41 -272.5z" />
<glyph unicode="&#x2122;" horiz-adv-x="2204" d="M1206 1205v-716h-208v1060h291l265 -780l275 780h292v-1060h-209v716l-236 -716h-231zM624 1376v-887h-253v887h-275v173h796v-173h-268z" />
<glyph unicode="&#xe000;" horiz-adv-x="1200" d="M0 1200h1200v-1200h-1200v1200z" />
<glyph horiz-adv-x="1144" />
<glyph horiz-adv-x="1428" d="M666 1011h96l292 -501l-128 -78l-212 377l-212 -377l-128 78z" />
<glyph horiz-adv-x="1597" d="M1131 0l-620 1076v-1076h-353v1630h420l609 -1060v1060h352v-1630h-408zM399 2355l329 155l215 -632l-171 -82z" />
<glyph horiz-adv-x="1264" d="M1308 464q0 -238 -153.5 -365t-451.5 -127q-128 0 -235.5 24.5t-187.5 54.5q-93 34 -170 79l84 277l27 -11q27 -12 70.5 -28.5t100 -36t115.5 -36t115.5 -27.5t102.5 -11q109 0 162 31t53 108q0 30 -6.5 56t-21.5 49t-40.5 42t-64.5 36l-414 175q-151 63 -227 173.5 t-76 266.5q0 80 25 145.5t68.5 117t102 89t126 62.5t140.5 37t145 12q82 0 156 -10t137 -25.5t113.5 -33.5t86 -33.5t54.5 -25.5l18 -10l-92 -259l-18 8q-17 8 -47 20.5t-71.5 27t-89.5 27t-101 20.5t-106 8q-45 0 -95.5 -4t-93 -19t-70.5 -44t-28 -79q0 -12 1.5 -26.5 t12.5 -31t35 -34.5t69 -36l372 -150q87 -35 155.5 -81t116 -105t72 -132.5t24.5 -164.5zM218 2386l329 155l215 -632l-171 -82z" />
<glyph horiz-adv-x="1244" d="M1201 1393l-704 -1142h706v-251h-1154v243l713 1136h-713v251h1152v-237zM233 2355l329 155l215 -632l-171 -82z" />
<glyph horiz-adv-x="1267" d="M522 1047q45 98 118 143.5t184 45.5q223 0 325.5 -121t102.5 -370v-745h-378v773q0 62 -9.5 103t-29 65t-49 34t-68.5 10q-71 0 -113.5 -30t-64.5 -73v-882h-378v1198h287zM237 1966l329 155l215 -632l-171 -82z" />
<glyph horiz-adv-x="1018" d="M346 540q-52 21 -99 46t-83 64t-57.5 96.5t-21.5 144.5q0 78 33.5 142t96.5 109t154 69.5t207 24.5q56 0 111 -7t105.5 -17.5t93 -23t73.5 -22.5t48 -16.5t16 -5.5l-68 -239v-1q-3 0 -21.5 6t-48.5 15t-68 19.5t-78 19.5t-80 15t-74 6q-47 0 -77.5 -6.5t-48.5 -19 t-25 -32t-7 -45.5q0 -17 4 -29t13.5 -21.5t26 -17.5t41.5 -18l211 -81q79 -30 138.5 -66t100 -79t61 -94.5t20.5 -114.5q0 -113 -43.5 -187.5t-113.5 -119t-158 -63t-178 -18.5q-63 0 -122 8t-111 20t-95 26t-73.5 25.5t-47 19t-14.5 6.5l68 244q2 0 20.5 -6.5t48.5 -17.5 t69 -23t81.5 -23t85 -18t79.5 -7q49 0 79 7t46 22.5t21.5 39.5t5.5 57q0 21 -25 43.5t-78 44.5zM90 1966l329 155l215 -632l-171 -82z" />
<glyph horiz-adv-x="1024" d="M109 946v253h888v-245l-483 -703h495v-251h-910v247l500 699h-490zM136 1945l329 155l215 -632l-171 -82z" />
<glyph horiz-adv-x="694" d="M159 0v1198h377v-1198h-377zM-128 1945l329 155l215 -632l-171 -82z" />
</font>
</defs>
</svg>
